<?xml version="1.0" encoding="UTF-8" standalone="no"?>
<!-- Created with Inkscape (http://www.inkscape.org/) -->

<svg
   width="159.07632mm"
   height="13.504933mm"
   viewBox="0 0 159.07632 13.504933"
   version="1.1"
   id="svg1"
   xml:space="preserve"
   xmlns="http://www.w3.org/2000/svg"
   xmlns:svg="http://www.w3.org/2000/svg"><defs
     id="defs1"><mask
       maskUnits="userSpaceOnUse"
       id="mask4"><rect
         style="fill:#ffffff;fill-opacity:1;stroke:#000000;stroke-width:0.296534;stroke-linecap:round;stroke-linejoin:round;stroke-dasharray:none;stroke-opacity:1"
         id="rect4"
         width="159.85332"
         height="13.823866"
         x="25.146624"
         y="120.64308" /></mask></defs><g
     id="layer1"
     transform="translate(-21.207224,-116.88678)"><path
       style="fill:#735473;fill-opacity:1"
       d="m 26.912043,278.29983 c -1.215801,-1.42946 -2.130652,-2.98187 -2.579451,-4.37707 -0.4119,-1.28048 -0.223176,-1.91535 0.569359,-1.91535 0.678578,0 1.772551,0.90575 2.251425,1.86406 l 0.241352,0.48299 0.233643,-0.49197 c 0.274069,-0.57708 1.092794,-1.43441 1.608021,-1.68382 0.491862,-0.23811 0.931987,-0.22462 1.193166,0.0366 0.304852,0.30486 0.281044,0.89257 -0.07733,1.90885 -0.155997,0.44239 -0.312133,0.87101 -0.346968,0.9525 -0.05952,0.13923 0.09022,0.14817 2.482712,0.14817 h 2.54605 l -0.153482,-0.35983 c -0.225741,-0.52925 -0.373677,-1.22167 -0.312817,-1.46415 0.234712,-0.93517 1.546436,-0.59314 2.347337,0.61205 0.121694,0.18313 0.12608,0.1809 0.416095,-0.21166 0.526566,-0.71276 1.295509,-1.09246 1.811424,-0.89448 0.172468,0.0662 0.385365,0.46995 0.38299,0.72636 -9.91e-4,0.10709 -0.108169,0.50903 -0.238172,0.89321 l -0.236369,0.6985 h 2.439505 c 1.341728,0 2.439506,-0.0181 2.439506,-0.0401 0,-0.0221 -0.111615,-0.32111 -0.248034,-0.66452 -0.486067,-1.2236 -0.54301,-2.11013 -0.15308,-2.38325 0.101635,-0.0712 0.340305,-0.12943 0.530377,-0.12943 0.658984,0 1.752484,0.91099 2.22249,1.85156 l 0.250645,0.50159 0.195106,-0.43575 c 0.232528,-0.51932 1.275523,-1.60507 1.720444,-1.79097 0.461262,-0.19272 0.872078,-0.16277 1.116234,0.0814 0.302554,0.30256 0.279363,0.89025 -0.07533,1.90885 -0.154044,0.44239 -0.30983,0.87101 -0.346193,0.9525 -0.06215,0.13928 0.08577,0.14817 2.467118,0.14817 h 2.53323 l -0.236369,-0.6985 c -0.130003,-0.38418 -0.237181,-0.78612 -0.238172,-0.89321 -0.0024,-0.25641 0.210522,-0.66018 0.38299,-0.72636 0.563786,-0.21635 1.442701,0.27019 1.998227,1.10614 0.121694,0.18313 0.12608,0.1809 0.416095,-0.21166 0.777571,-1.05251 1.942671,-1.26843 2.160534,-0.40039 0.06086,0.24248 -0.08708,0.9349 -0.312817,1.46415 l -0.153482,0.35983 h 2.452325 c 1.348778,0 2.452324,-0.0162 2.452324,-0.0359 0,-0.0198 -0.111274,-0.31504 -0.247276,-0.65616 -0.485616,-1.21805 -0.543706,-2.12273 -0.153838,-2.3958 0.101635,-0.0712 0.343423,-0.12943 0.537305,-0.12943 0.685889,0 1.811,0.96838 2.2713,1.9549 l 0.181304,0.38858 0.239902,-0.49387 c 0.268543,-0.55283 1.237546,-1.53444 1.70932,-1.73156 0.792484,-0.33112 1.305255,-0.0314 1.30245,0.7612 -0.0013,0.36853 -0.335945,1.53583 -0.627804,2.18991 -0.06215,0.13929 0.08614,0.14817 2.474811,0.14817 h 2.540931 l -0.160821,-0.42339 c -0.378055,-0.99496 -0.374863,-1.65798 0.009,-1.8634 0.533002,-0.28526 1.465257,0.20513 2.043139,1.07472 0.121694,0.18313 0.126081,0.1809 0.416095,-0.21166 0.602778,-0.81591 1.481,-1.16869 1.954005,-0.7849 0.17112,0.13884 0.19859,0.23325 0.190918,0.65617 -0.0057,0.31458 -0.08669,0.68616 -0.222991,1.02315 l -0.214031,0.52917 h 2.445492 c 1.34502,0 2.445491,-0.0198 2.445491,-0.044 0,-0.0242 -0.09657,-0.28138 -0.214595,-0.5715 -0.704315,-1.73123 -0.594531,-2.60181 0.328099,-2.60181 0.723434,0 1.950995,1.0701 2.313997,2.01717 l 0.140352,0.36618 0.212404,-0.45084 c 0.246926,-0.52412 1.255461,-1.57313 1.719872,-1.78889 0.800038,-0.3717 1.343202,-0.0736 1.340338,0.73563 -0.0013,0.36853 -0.335945,1.53583 -0.627804,2.18991 -0.06215,0.13929 0.08614,0.14817 2.474811,0.14817 h 2.540924 l -0.165918,-0.43666 c -0.363696,-0.95717 -0.357626,-1.65107 0.01619,-1.85113 0.53086,-0.28411 1.464205,0.20788 2.041014,1.07586 0.121694,0.18313 0.126081,0.1809 0.416095,-0.21166 0.39417,-0.53355 1.020491,-0.94708 1.434407,-0.94708 0.724868,0 0.917751,0.56394 0.558707,1.63351 -0.121126,0.36083 -0.22023,0.6743 -0.22023,0.69661 0,0.0223 1.105675,0.0405 2.457054,0.0405 h 2.45705 l -0.16128,-0.3175 c -0.26763,-0.52684 -0.60416,-1.69865 -0.60416,-2.10372 0,-0.52511 0.26921,-0.79611 0.79084,-0.79611 0.71044,0 1.82573,0.9513 2.29535,1.95784 l 0.18266,0.39152 0.27874,-0.53761 c 0.30464,-0.58756 1.12801,-1.42691 1.6364,-1.66816 0.79388,-0.37672 1.33534,-0.073 1.33534,0.7489 0,0.38414 -0.29839,1.41365 -0.63088,2.17667 -0.0606,0.13919 0.0842,0.14817 2.39164,0.14817 h 2.45621 l -0.2017,-0.5715 c -0.26895,-0.76205 -0.27245,-1.36788 -0.009,-1.61508 0.47678,-0.44791 1.46311,0.01 2.10418,0.97671 0.12327,0.1859 0.12604,0.18451 0.42189,-0.21167 0.39545,-0.52955 0.90721,-0.87443 1.37595,-0.92726 0.32283,-0.0364 0.40756,-0.0114 0.59459,0.17566 0.14982,0.14983 0.2181,0.30929 0.2181,0.50937 0,0.24113 -0.21028,1.06135 -0.39653,1.54671 -0.0376,0.098 0.36962,0.11706 2.50586,0.11706 h 2.55078 l -0.16129,-0.3175 c -0.24367,-0.47968 -0.60415,-1.68461 -0.60415,-2.01941 0,-0.34602 0.18904,-0.75271 0.38479,-0.82783 0.37053,-0.14219 0.78776,-0.0482 1.29749,0.29214 0.61795,0.41265 1.03308,0.87901 1.35385,1.52094 l 0.2373,0.47486 0.27645,-0.5332 c 0.30232,-0.58309 1.12768,-1.42343 1.6341,-1.66374 0.40863,-0.19391 0.93088,-0.18731 1.11313,0.0141 0.42474,0.46934 0.32273,1.17243 -0.42859,2.95384 -0.0351,0.0833 0.47924,0.10583 2.41157,0.10583 h 2.45621 l -0.2017,-0.5715 c -0.26895,-0.76205 -0.27244,-1.36788 -0.009,-1.61508 0.24468,-0.22987 0.63788,-0.23796 1.05625,-0.0217 0.31421,0.16239 0.94341,0.76519 1.08966,1.04394 0.0669,0.1275 0.11914,0.0924 0.3778,-0.254 0.39767,-0.53252 0.9087,-0.87749 1.37831,-0.93042 0.32283,-0.0364 0.40756,-0.0114 0.59458,0.17566 0.14983,0.14983 0.21811,0.30929 0.21811,0.50937 0,0.24113 -0.21028,1.06135 -0.39654,1.54671 -0.0376,0.098 0.36454,0.11706 2.47169,0.11706 2.35936,0 2.51347,-0.009 2.46659,-0.14817 -0.0275,-0.0815 -0.18366,-0.52916 -0.34701,-0.99483 -0.3231,-0.92106 -0.36773,-1.35922 -0.1762,-1.72961 0.14473,-0.27987 0.2802,-0.34472 0.72008,-0.34472 0.23575,0 0.46048,0.0924 0.83834,0.34473 0.63567,0.42449 1.05987,0.90235 1.36491,1.53758 l 0.23305,0.48532 0.26585,-0.54002 c 0.29086,-0.59081 1.11089,-1.43394 1.63789,-1.68402 0.43846,-0.20806 0.92679,-0.18798 1.14046,0.0469 0.40028,0.44001 0.28856,1.15579 -0.45593,2.921 -0.0351,0.0833 0.47925,0.10583 2.41158,0.10583 h 2.45621 l -0.2017,-0.5715 c -0.26895,-0.76205 -0.27245,-1.36788 -0.009,-1.61508 0.41807,-0.39275 1.11372,-0.15397 1.82784,0.62739 l 0.44107,0.48259 0.13724,-0.20253 c 0.2365,-0.34904 0.80171,-0.85334 1.09263,-0.9749 0.65127,-0.27212 1.21593,0.002 1.21593,0.59026 0,0.24113 -0.21028,1.06135 -0.39653,1.54671 -0.0376,0.098 0.36962,0.11706 2.50586,0.11706 h 2.55078 l -0.16965,-0.33254 c -0.2178,-0.42693 -0.59579,-1.72866 -0.59579,-2.0518 0,-0.30464 0.19953,-0.70931 0.38479,-0.7804 0.75425,-0.28943 2.05048,0.58653 2.64722,1.78891 0.12133,0.24447 0.24124,0.44435 0.26646,0.44418 0.0252,-1.8e-4 0.11933,-0.18115 0.20913,-0.40217 0.19156,-0.47149 1.19891,-1.52109 1.66986,-1.73989 0.46106,-0.21421 0.93167,-0.18835 1.16895,0.0642 0.15527,0.16528 0.19411,0.29968 0.18963,0.65617 -0.006,0.4728 -0.26571,1.41988 -0.53425,1.94778 -0.0879,0.17277 -0.15979,0.33469 -0.15979,0.35983 0,0.0251 1.10898,0.0457 2.46439,0.0457 2.31349,0 2.46071,-0.009 2.40431,-0.14817 -0.44021,-1.08549 -0.5,-1.74287 -0.18541,-2.03841 0.41806,-0.39275 1.11372,-0.15397 1.82784,0.62739 l 0.44106,0.48259 0.13724,-0.20253 c 0.63167,-0.93223 1.6316,-1.35287 2.10075,-0.88372 0.27252,0.27252 0.27147,0.67605 -0.004,1.48552 -0.11641,0.34227 -0.21166,0.6347 -0.21166,0.64982 0,0.0151 1.14397,0.0275 2.54217,0.0275 h 2.54217 l -0.13973,-0.27021 c -0.22097,-0.42731 -0.53374,-1.40521 -0.59348,-1.85555 -0.14469,-1.09074 0.61735,-1.43585 1.64915,-0.74684 0.63731,0.42558 1.05999,0.90256 1.36764,1.54334 l 0.23577,0.49108 0.21524,-0.47013 c 0.26305,-0.57459 0.96696,-1.33689 1.53673,-1.66423 0.88365,-0.50766 1.48167,-0.24664 1.48167,0.6467 0,1.30431 -1.13559,3.49109 -2.8639,5.51496 l -0.37356,0.43745 -0.45047,-0.53098 c -0.57162,-0.6738 -1.30388,-1.69318 -1.64674,-2.29243 l -0.26576,-0.46449 h -2.70367 -2.70368 l -0.3676,0.57149 c -0.46397,0.72131 -1.30043,1.77177 -1.4594,1.83278 -0.14558,0.0559 -1.01461,-0.96751 -1.5259,-1.79688 l -0.34834,-0.56506 h -2.64823 -2.64823 l -0.43243,0.69553 c -0.45939,0.73891 -1.80415,2.47947 -1.91563,2.47947 -0.17706,0 -1.63753,-1.89829 -2.13331,-2.77283 l -0.25198,-0.4445 h -2.70181 -2.7018 l -0.36761,0.57149 c -0.45721,0.7108 -1.29962,1.77146 -1.454,1.8307 -0.17669,0.0678 -1.10766,-1.07571 -1.76713,-2.17056 l -0.14097,-0.23404 -2.63403,0.0224 -2.63404,0.0224 -0.43239,0.69553 c -0.46651,0.75042 -1.80479,2.47947 -1.9191,2.47947 -0.17844,0 -1.62443,-1.8828 -2.12953,-2.77283 l -0.25226,-0.4445 h -2.6969 -2.69691 l -0.43837,0.65616 c -0.44529,0.66653 -1.10442,1.5016 -1.33602,1.69265 -0.10332,0.0852 -0.15872,0.0772 -0.29244,-0.0423 -0.23143,-0.20691 -1.08173,-1.33138 -1.40923,-1.86364 l -0.27396,-0.44524 -2.62878,0.0224 -2.62877,0.0224 -0.4324,0.69654 c -0.23781,0.3831 -0.76767,1.11663 -1.17747,1.63007 l -0.74509,0.93353 -0.34934,-0.40241 c -0.54262,-0.62503 -1.45175,-1.87532 -1.75475,-2.41323 l -0.27423,-0.48683 -2.72242,0.002 -2.72242,0.002 -0.27535,0.45512 c -0.32494,0.53709 -0.93826,1.36382 -1.29538,1.74611 -0.25067,0.26835 -0.25604,0.26974 -0.43193,0.11234 -0.24245,-0.21695 -1.08686,-1.33025 -1.42164,-1.87433 l -0.27322,-0.44404 h -2.61546 -2.61544 l -0.14457,0.23283 c -0.53956,0.86893 -1.00129,1.52518 -1.57859,2.24362 l -0.66329,0.82545 -0.38237,-0.44445 c -0.6177,-0.718 -1.37543,-1.75921 -1.6944,-2.32829 l -0.29659,-0.52916 H 98.9163 96.258308 l -0.16458,0.3226 c -0.18629,0.36516 -1.054047,1.54088 -1.412939,1.91438 l -0.237645,0.24733 -0.443953,-0.49638 c -0.244174,-0.27301 -0.664779,-0.83198 -0.934676,-1.24215 l -0.491549,-0.74513 h -2.681999 -2.681998 l -0.627626,0.95249 c -0.345195,0.52388 -0.885626,1.26271 -1.200959,1.64185 l -0.573332,0.68934 -0.274054,-0.30834 c -0.612903,-0.68959 -1.355132,-1.68912 -1.717835,-2.31335 l -0.384643,-0.66199 h -2.653852 -2.653852 l -0.16458,0.3226 c -0.184777,0.36219 -1.053471,1.54042 -1.40567,1.90654 l -0.230377,0.23949 -0.251609,-0.23949 c -0.31833,-0.30298 -1.069058,-1.30086 -1.37449,-1.82698 l -0.233473,-0.40216 H 70.76846 68.074303 l -0.626795,0.95249 c -0.581761,0.88407 -1.602062,2.19019 -1.755495,2.24727 -0.150237,0.0559 -1.529258,-1.69674 -2.092101,-2.65891 l -0.316387,-0.54085 h -2.641326 -2.641326 l -0.260432,0.46146 c -0.253308,0.44883 -1.297913,1.80652 -1.482444,1.92675 -0.05055,0.0329 -0.20031,-0.0433 -0.3328,-0.16933 -0.309052,-0.29408 -1.062499,-1.29776 -1.363773,-1.81672 l -0.233473,-0.40216 h -2.698672 -2.698673 l -0.621149,0.95249 c -0.51239,0.78573 -0.864987,1.24559 -1.736567,2.26484 -0.102942,0.12038 -1.539102,-1.71126 -2.140945,-2.7305 l -0.287465,-0.48683 h -2.639137 -2.639137 l -0.260431,0.46146 c -0.252513,0.44742 -1.297635,1.8063 -1.481367,1.92608 -0.04996,0.0326 -0.16417,-0.006 -0.253806,-0.0847 -0.292262,-0.25803 -1.125132,-1.34417 -1.402583,-1.8291 l -0.271071,-0.47378 H 32.495429 29.79391 l -0.560743,0.8641 c -0.471475,0.72654 -0.917158,1.31182 -1.728458,2.26986 -0.118402,0.13981 -0.158525,0.1129 -0.592666,-0.39754 z m 10.848774,-1.67154 c 0.878204,-1.17947 1.52704,-2.74041 1.341719,-3.22785 -0.223672,-0.5883 -1.398232,0.16961 -1.817344,1.17269 -0.07192,0.17212 -0.186883,0.31294 -0.255483,0.31294 -0.0686,0 -0.183568,-0.14082 -0.255483,-0.31294 -0.419112,-1.00308 -1.593672,-1.76099 -1.817344,-1.17269 -0.216539,0.56954 0.627213,2.39438 1.715575,3.71039 0.395411,0.47812 0.362077,0.49289 1.08836,-0.48254 z m 19.134666,0 c 0.878204,-1.17947 1.527041,-2.74041 1.341719,-3.22785 -0.223672,-0.5883 -1.398232,0.16961 -1.817344,1.17269 -0.07191,0.17212 -0.186335,0.31294 -0.254266,0.31294 -0.06793,0 -0.205943,-0.19162 -0.306695,-0.42582 -0.19579,-0.45513 -0.882577,-1.14843 -1.222039,-1.23363 -0.395132,-0.0992 -0.502712,-0.0174 -0.529945,0.40297 -0.04791,0.73943 0.714424,2.30299 1.697308,3.48124 0.398764,0.47802 0.364905,0.49299 1.091262,-0.48254 z m 19.120627,0.0391 c 0.87512,-1.18083 1.543433,-2.77333 1.363014,-3.24787 -0.230695,-0.60678 -1.397233,0.13077 -1.8246,1.1536 -0.07191,0.17212 -0.186335,0.31294 -0.254266,0.31294 -0.06793,0 -0.205943,-0.19162 -0.306695,-0.42582 -0.19579,-0.45513 -0.882577,-1.14843 -1.222039,-1.23363 -0.371809,-0.0933 -0.502659,-0.0122 -0.530913,0.32922 -0.06648,0.80327 0.547365,2.09321 1.673641,3.51701 0.347688,0.43953 0.361139,0.44722 0.524191,0.29967 0.09204,-0.0833 0.35199,-0.4006 0.577667,-0.70512 z m 19.157017,-0.0384 c 0.875382,-1.17784 1.560318,-2.84575 1.338688,-3.25987 -0.281038,-0.52512 -1.412424,0.22226 -1.822625,1.20401 -0.07192,0.17212 -0.186335,0.31294 -0.254265,0.31294 -0.06793,0 -0.205944,-0.19162 -0.306696,-0.42582 -0.19579,-0.45513 -0.882577,-1.14843 -1.222039,-1.23363 -0.395132,-0.0992 -0.502711,-0.0174 -0.529945,0.40297 -0.04721,0.72867 0.6468,2.16008 1.668804,3.44192 0.424413,0.53232 0.394989,0.54386 1.128078,-0.44252 z m 18.506543,0.61604 c 0.72886,-0.85177 1.48606,-2.16933 1.74199,-3.03113 0.16583,-0.55842 0.16922,-0.68988 0.0229,-0.88994 -0.29375,-0.40173 -1.38605,0.33386 -1.74733,1.17671 -0.0909,0.21197 -0.21441,0.3854 -0.27455,0.3854 -0.0601,0 -0.19396,-0.18446 -0.29739,-0.40992 -0.2154,-0.46953 -0.91325,-1.16405 -1.25608,-1.2501 -0.38493,-0.0966 -0.50366,0.0498 -0.49145,0.60599 0.009,0.41558 0.0829,0.63235 0.48592,1.42815 0.40185,0.79347 1.40222,2.25055 1.54512,2.25055 0.0239,0 0.14578,-0.11957 0.27084,-0.26571 z m 19.11092,0.0329 c 0.67577,-0.76219 1.40074,-1.98646 1.69447,-2.86148 0.23787,-0.70859 0.25232,-0.87621 0.0942,-1.09246 -0.29337,-0.40121 -1.32521,0.29 -1.73156,1.15995 -0.10332,0.22119 -0.23551,0.40216 -0.29375,0.40216 -0.0582,0 -0.19052,-0.18446 -0.29395,-0.40992 -0.2154,-0.46953 -0.91325,-1.16405 -1.25608,-1.2501 -0.74823,-0.18779 -0.7048,0.69999 0.1108,2.26518 0.33261,0.6383 1.30884,2.01951 1.42738,2.01951 0.0231,0 0.13496,-0.10478 0.2485,-0.23284 z m 19.31546,-0.21685 c 1.01889,-1.27476 1.85415,-3.07431 1.67043,-3.59891 -0.10885,-0.31081 -0.38174,-0.32966 -0.84469,-0.0584 -0.39429,0.23107 -0.81053,0.7275 -1.01213,1.20713 -0.16038,0.38157 -0.30519,0.3444 -0.52501,-0.13476 -0.2154,-0.46953 -0.91325,-1.16405 -1.25607,-1.2501 -0.69666,-0.17485 -0.7028,0.65398 -0.0151,2.04102 0.38111,0.76869 1.43097,2.25311 1.584,2.23966 0.0251,-0.002 0.20443,-0.20276 0.39859,-0.44568 z m 19.24732,-0.14904 c 0.67845,-0.8665 1.1366,-1.68363 1.40279,-2.50192 0.26342,-0.80977 0.23022,-1.15287 -0.11634,-1.20247 -0.44321,-0.0634 -1.2755,0.65867 -1.56863,1.36095 -0.17477,0.41874 -0.3402,0.40116 -0.51427,-0.0546 -0.16487,-0.43169 -0.92857,-1.19875 -1.28177,-1.2874 -0.73236,-0.18381 -0.6945,0.74716 0.0908,2.23235 0.34456,0.65166 1.34968,2.05435 1.46887,2.04986 0.0291,-10e-4 0.26247,-0.26962 0.51859,-0.59673 z m -143.213661,-6.6826 c -0.388994,-0.37254 -0.757678,-0.67702 -0.819298,-0.67663 -0.06162,4e-4 -0.430708,0.229 -0.820197,0.508 -0.38949,0.27901 -0.74442,0.50729 -0.788733,0.50729 -0.222797,0 -0.408105,-0.19185 -0.408105,-0.42251 0,-0.20977 0.103413,-0.32593 0.682767,-0.76696 0.375521,-0.28586 0.723316,-0.60874 0.772877,-0.71752 0.06139,-0.13474 0.06641,-0.5368 0.01573,-1.26153 l -0.07438,-1.06376 -0.582773,0.46514 c -0.320524,0.25583 -0.647994,0.46514 -0.727711,0.46514 -0.176865,0 -0.425183,-0.26001 -0.425183,-0.4452 0,-0.0745 0.293956,-0.39539 0.653236,-0.713 0.359279,-0.31761 0.759329,-0.67931 0.889,-0.80379 l 0.235764,-0.22632 v -1.54088 c 0,-1.77194 0.02101,-1.75071 -0.689949,-0.69711 -0.308616,0.45735 -0.464345,0.61597 -0.603798,0.61501 -0.565458,-0.004 -0.518879,-0.44687 0.15684,-1.49155 0.267107,-0.41295 0.622056,-1.01752 0.788777,-1.34349 0.28191,-0.55118 0.305362,-0.65647 0.335041,-1.50418 0.03476,-0.99296 -0.0331,-1.67082 -0.16727,-1.67082 -0.04692,0 -0.425266,0.3048 -0.840758,0.67733 -0.415492,0.37254 -0.829804,0.67734 -0.920694,0.67734 -0.20417,0 -0.433165,-0.30936 -0.367562,-0.49656 0.02668,-0.0761 0.536533,-0.61469 1.132996,-1.19678 l 1.084477,-1.05833 0.05505,-1.50283 c 0.03903,-1.06539 0.02808,-1.50284 -0.03761,-1.50284 -0.05096,0 -0.413828,0.28575 -0.80637,0.635 -0.70283,0.62532 -0.933735,0.73391 -1.13424,0.5334 -0.252297,-0.25229 -0.109015,-0.4973 0.824486,-1.40983 0.509347,-0.4979 0.966547,-1.0117 1.016,-1.14177 0.101241,-0.26628 0.126913,-3.61213 0.02772,-3.61213 -0.03421,0 -0.31102,0.2667 -0.615135,0.59267 -0.304115,0.32596 -0.618147,0.59266 -0.69785,0.59266 -0.0797,0 -0.205649,-0.0927 -0.279882,-0.20599 -0.164107,-0.25046 -0.147907,-0.2852 0.587813,-1.26067 0.299856,-0.39757 0.653132,-0.90649 0.785056,-1.13093 l 0.239863,-0.40807 -0.02484,-1.64763 c -0.01366,-0.90619 -0.04332,-1.66609 -0.0659,-1.68867 -0.02258,-0.0226 -0.298108,0.21402 -0.612281,0.52578 -0.563398,0.55908 -0.809256,0.6717 -1.015707,0.46525 -0.205542,-0.20554 -0.09275,-0.47544 0.4699,-1.12437 0.314325,-0.36253 0.70485,-0.83336 0.867833,-1.04628 l 0.296334,-0.38713 0.02612,-1.73129 0.02612,-1.7313 -0.237789,0.15579 c -0.130784,0.0857 -0.476428,0.35823 -0.768096,0.60565 -0.291669,0.24743 -0.598374,0.44986 -0.681567,0.44986 -0.354808,0 -0.473,-0.4384 -0.195424,-0.72487 0.08747,-0.0903 0.472331,-0.46876 0.855247,-0.84109 0.382915,-0.37233 0.758308,-0.79143 0.834206,-0.93133 0.109869,-0.20252 0.144253,-0.57796 0.168685,-1.84187 0.02006,-1.03758 9.22e-4,-1.5875 -0.05524,-1.5875 -0.04726,0 -0.355787,0.24765 -0.685615,0.55033 -0.329829,0.30268 -0.67357,0.55033 -0.763869,0.55033 -0.202764,0 -0.431727,-0.30927 -0.367609,-0.49655 0.02607,-0.0761 0.400018,-0.5004 0.830994,-0.94278 0.430976,-0.44238 0.83041,-0.89603 0.887631,-1.00811 0.06557,-0.12843 0.114697,-0.71584 0.132865,-1.58865 0.03348,-1.6086 0.07935,-1.57065 -0.808552,-0.66897 -0.558697,0.56737 -0.814217,0.67548 -1.017533,0.4305 -0.178371,-0.21493 -0.02678,-0.5075 0.68767,-1.32719 1.016778,-1.16655 1.038106,-1.22934 1.074275,-3.16285 0.01657,-0.88565 -0.0027,-1.73687 -0.04278,-1.89161 l -0.0729,-0.28135 -0.585046,0.72745 c -0.473545,0.58881 -0.628531,0.72745 -0.813219,0.72745 -0.292969,0 -0.452147,-0.19205 -0.384051,-0.46337 0.0292,-0.11636 0.357788,-0.59035 0.730185,-1.05332 0.718731,-0.89353 1.065632,-1.5273 1.139095,-2.08107 0.02475,-0.18658 0.01617,-1.02059 -0.01907,-1.85334 l -0.06407,-1.51409 -0.829532,0.94259 c -0.678619,0.77111 -0.871927,0.9426 -1.062567,0.9426 -0.265502,0 -0.436234,-0.13627 -0.436234,-0.34817 0,-0.0797 0.5334,-0.78572 1.185333,-1.56886 l 1.185334,-1.42389 v -1.63154 c 0,-1.15001 -0.02805,-1.63154 -0.09504,-1.63154 -0.05227,0 -0.335979,0.22538 -0.630457,0.50085 -0.642797,0.60131 -0.838012,0.6826 -1.073561,0.44705 -0.275023,-0.27503 -0.133232,-0.53173 0.734519,-1.32978 0.52797,-0.48557 0.843404,-0.84687 0.931435,-1.06688 0.138587,-0.34636 0.160959,-1.16309 0.05971,-2.17992 l -0.0536,-0.53835 -0.583296,0.47877 c -1.068141,0.87674 -1.575704,0.97252 -1.575704,0.29734 0,-0.0956 0.188148,-0.29873 0.468592,-0.50591 0.257726,-0.19039 0.84926,-0.70595 1.31452,-1.14567 0.930072,-0.87903 1.057552,-0.9282 1.52065,-0.58654 0.531783,0.39234 1.945571,1.83362 1.945571,1.9834 0,0.2348 -0.295535,0.4534 -0.517648,0.38291 -0.105114,-0.0334 -0.478593,-0.33207 -0.829954,-0.6638 l -0.638837,-0.60314 -0.0551,0.254 c -0.0303,0.1397 -0.0596,0.87576 -0.06511,1.63569 l -0.01002,1.38168 1.016,1.05353 c 0.70676,0.73286 1.016,1.11364 1.016,1.25102 0,0.22097 -0.238823,0.47775 -0.444336,0.47775 -0.07407,0 -0.422184,-0.31246 -0.77359,-0.69436 -0.351407,-0.38189 -0.654392,-0.67717 -0.673301,-0.65616 -0.01891,0.021 -0.06121,0.78803 -0.09399,1.7045 l -0.05961,1.66632 0.812704,0.86672 c 0.898172,0.95787 1.02395,1.20522 0.732758,1.44102 -0.243237,0.19696 -0.383237,0.13899 -0.921816,-0.38171 -0.3658,-0.35366 -0.461964,-0.40947 -0.526601,-0.30567 -0.04349,0.0699 -0.07071,0.75565 -0.06048,1.524 0.02178,1.63561 0.0357,1.67733 0.876282,2.62713 0.307893,0.3479 0.655167,0.7749 0.77172,0.94889 0.201885,0.30138 0.205315,0.32642 0.07247,0.52917 -0.253076,0.38624 -0.449438,0.29991 -1.104706,-0.48569 -0.223338,-0.26776 -0.43954,-0.48683 -0.48045,-0.48683 -0.107966,0 -0.09393,4.00155 0.01504,4.28817 0.04918,0.12935 0.271881,0.42811 0.494891,0.66391 0.571104,0.60386 0.646622,0.76538 0.47809,1.0226 -0.16566,0.25283 -0.326008,0.25957 -0.652037,0.0274 -0.137928,-0.0982 -0.264436,-0.16489 -0.28113,-0.14817 -0.0263,0.0263 -0.07284,2.48422 -0.05216,2.75416 0.0042,0.0545 0.485199,0.7022 1.06894,1.43933 1.118146,1.41197 1.208939,1.61505 0.832977,1.86317 -0.161777,0.10677 -0.205886,0.097 -0.435491,-0.0962 -0.140515,-0.11824 -0.472144,-0.49785 -0.736953,-0.84358 -0.693849,-0.90588 -0.717798,-0.89986 -0.742576,0.18665 -0.0469,2.05636 0.06215,2.51156 0.814587,3.40053 0.251093,0.29666 0.582181,0.7467 0.735751,1.00009 0.290669,0.4796 0.285164,0.61844 -0.03247,0.8188 -0.202557,0.12777 -0.363866,0.006 -0.862175,-0.6529 -0.232833,-0.30769 -0.448066,-0.56151 -0.478296,-0.56405 -0.08877,-0.007 -0.131993,2.89999 -0.04587,3.08571 0.04319,0.0931 0.202221,0.30268 0.353406,0.46566 0.50207,0.54125 1.059763,1.27497 1.059763,1.39425 0,0.182 -0.244539,0.38375 -0.465126,0.38375 -0.13254,0 -0.313018,-0.13335 -0.54023,-0.39916 -0.187658,-0.21955 -0.371598,-0.36879 -0.408754,-0.33166 -0.116418,0.11634 -0.08042,3.0229 0.04171,3.36715 0.0601,0.1694 0.45062,0.69932 0.867834,1.1776 0.745162,0.85424 0.874319,1.11646 0.65697,1.33381 -0.218846,0.21884 -0.48563,0.10534 -0.984448,-0.41882 l -0.495251,-0.52042 -0.05681,1.72692 c -0.03176,0.96535 -0.02322,1.84306 0.01936,1.99028 0.122088,0.42216 0.245317,0.60834 1.085154,1.63953 0.821261,1.00838 0.927374,1.26803 0.601568,1.47198 -0.238114,0.14906 -0.516404,-0.0294 -1.083789,-0.69496 -0.391916,-0.45974 -0.549184,-0.59232 -0.602617,-0.508 -0.104077,0.16422 -0.09076,2.17021 0.01698,2.55824 0.06787,0.24443 0.33618,0.57618 1.057861,1.30797 1.016457,1.03069 1.130175,1.24626 0.784971,1.48805 -0.251811,0.17638 -0.483019,0.0444 -1.162045,-0.66328 -0.296818,-0.30934 -0.550677,-0.5513 -0.564131,-0.53767 -0.01345,0.0136 -0.04919,0.63438 -0.07942,1.37944 l -0.05496,1.35467 0.682588,0.79881 c 0.668419,0.78223 0.791252,1.04833 0.580988,1.25859 -0.179288,0.17929 -0.450344,0.10934 -0.741873,-0.19144 -0.156213,-0.16117 -0.316087,-0.27322 -0.355275,-0.249 -0.03919,0.0242 -0.07125,0.75684 -0.07125,1.62805 v 1.58401 l 0.889,0.88598 c 0.878108,0.87512 1.015906,1.10923 0.7874,1.33773 -0.198851,0.19885 -0.47388,0.0979 -0.991585,-0.36406 -0.287035,-0.25612 -0.558542,-0.46567 -0.603348,-0.46567 -0.04805,0 -0.08147,0.457 -0.08147,1.11414 v 1.11414 l 0.846667,0.87023 c 0.849881,0.87353 0.98839,1.12857 0.745067,1.37189 -0.204557,0.20456 -0.433552,0.0875 -1.126067,-0.57573 z m 154.558991,0 c -0.39582,-0.37135 -0.77106,-0.67566 -0.83388,-0.67626 -0.0628,-5.9e-4 -0.41758,0.22752 -0.78838,0.50692 -0.37079,0.2794 -0.71242,0.508 -0.75919,0.508 -0.15221,0 -0.39141,-0.16146 -0.44462,-0.30011 -0.0843,-0.21968 0.0754,-0.4158 0.75547,-0.92762 0.35321,-0.26583 0.67107,-0.56506 0.70636,-0.66497 0.0353,-0.0999 0.0424,-0.67115 0.0157,-1.26945 l -0.0485,-1.08782 -0.59267,0.47352 c -0.62587,0.50004 -0.79436,0.55699 -1.00995,0.3414 -0.22713,-0.22712 -0.15043,-0.41899 0.35379,-0.88503 0.26775,-0.24749 0.6678,-0.61866 0.889,-0.82483 l 0.40216,-0.37484 v -1.51579 c 0,-0.9175 -0.0323,-1.51579 -0.0817,-1.51579 -0.0449,0 -0.2972,0.32385 -0.56058,0.71967 -0.41398,0.62213 -0.51151,0.71966 -0.71965,0.71966 -0.29399,0 -0.44984,-0.23914 -0.34125,-0.52362 0.0412,-0.10783 0.36525,-0.67072 0.72021,-1.25088 0.86398,-1.41214 0.98322,-1.74963 0.98205,-2.77951 -0.001,-0.93783 -0.0684,-1.45732 -0.18877,-1.45732 -0.0456,0 -0.42668,0.3048 -0.84689,0.67733 -0.4202,0.37254 -0.82922,0.67734 -0.90892,0.67734 -0.21801,0 -0.44974,-0.29717 -0.38667,-0.49587 0.0296,-0.0931 0.5413,-0.62792 1.1372,-1.1884 l 1.08346,-1.01905 0.0565,-1.49803 c 0.0311,-0.82392 0.0407,-1.51388 0.0213,-1.53325 -0.0823,-0.0823 -0.55204,0.25447 -1.02197,0.73284 -0.50205,0.51106 -0.75311,0.61909 -0.95938,0.41282 -0.26371,-0.26371 -0.11879,-0.51886 0.78387,-1.38006 0.54007,-0.51527 0.93813,-0.96988 1.01697,-1.16145 0.10113,-0.24571 0.12956,-0.67765 0.12956,-1.9685 0,-0.9442 -0.0333,-1.65372 -0.0775,-1.65372 -0.0426,0 -0.29361,0.24614 -0.55772,0.54697 -0.54446,0.62015 -0.74105,0.72168 -0.97951,0.50587 -0.24261,-0.21956 -0.2037,-0.37873 0.22793,-0.93221 0.48938,-0.62755 1.16714,-1.63222 1.25227,-1.8563 0.0691,-0.18197 0.0708,-3.35159 0.002,-3.42059 -0.0228,-0.0228 -0.29848,0.21365 -0.61265,0.52541 -0.5634,0.55908 -0.80926,0.6717 -1.01571,0.46525 -0.22532,-0.22532 -0.0926,-0.49451 0.69913,-1.41819 0.49095,-0.57277 0.83659,-1.05726 0.89344,-1.25236 0.0566,-0.19435 0.0828,-0.90372 0.0671,-1.82276 l -0.0256,-1.50457 -0.26375,0.19224 c -0.14506,0.10573 -0.48796,0.37319 -0.762,0.59435 -0.27404,0.22117 -0.55902,0.40214 -0.6333,0.40217 -0.15689,6e-5 -0.41529,-0.26002 -0.41529,-0.41799 0,-0.0596 0.40566,-0.49475 0.90146,-0.967 0.4958,-0.47224 0.95941,-0.99197 1.03025,-1.15496 0.16735,-0.38507 0.26244,-3.38666 0.10728,-3.38666 -0.0541,0 -0.36204,0.24765 -0.68432,0.55033 -0.32228,0.30268 -0.66095,0.55033 -0.7526,0.55033 -0.19129,0 -0.43273,-0.21213 -0.43273,-0.38019 0,-0.14839 0.68456,-0.93927 1.24317,-1.43624 0.24137,-0.21473 0.47873,-0.51301 0.52748,-0.66283 0.0487,-0.14982 0.10498,-0.87197 0.12497,-1.60477 0.0422,-1.54743 0.086,-1.51314 -0.79251,-0.62103 -0.54349,0.55193 -0.79168,0.66463 -1.00151,0.4548 -0.21994,-0.21994 -0.095,-0.49044 0.5866,-1.27015 0.37851,-0.43299 0.78697,-0.9968 0.9077,-1.25292 0.20618,-0.4374 0.2213,-0.55817 0.24916,-1.98967 0.0163,-0.8382 -0.002,-1.66942 -0.0404,-1.84716 l -0.0701,-0.32315 -0.61441,0.72532 c -0.62096,0.73306 -0.85918,0.86774 -1.10319,0.62373 -0.24127,-0.24127 -0.1352,-0.45277 0.81843,-1.63186 0.73297,-0.90626 0.9632,-1.42415 0.97542,-2.19419 0.0202,-1.27123 -0.0356,-3.01484 -0.0963,-3.01091 -0.0349,0.002 -0.22539,0.20229 -0.42324,0.4445 -0.80008,0.97945 -1.25387,1.41406 -1.47647,1.41406 -0.2752,0 -0.44113,-0.1957 -0.37596,-0.4434 0.0277,-0.10538 0.45481,-0.66785 0.94909,-1.24994 0.49428,-0.58208 1.00925,-1.20692 1.14438,-1.38853 l 0.2457,-0.33021 v -1.54863 c 0,-0.97679 -0.0324,-1.56865 -0.0877,-1.60283 -0.0482,-0.0298 -0.33538,0.17749 -0.6381,0.46067 -0.30272,0.28317 -0.58399,0.51487 -0.62504,0.51487 -0.0411,0 -0.13,0.0212 -0.19766,0.0472 -0.0677,0.026 -0.18507,-0.0149 -0.26092,-0.0907 -0.28244,-0.28245 -0.17005,-0.49082 0.73409,-1.36095 1.07933,-1.03874 1.11034,-1.1193 1.02628,-2.66565 -0.0327,-0.60201 -0.0722,-1.09456 -0.0877,-1.09456 -0.0155,0 -0.33411,0.24695 -0.70797,0.54878 -0.37385,0.30183 -0.77186,0.5719 -0.88446,0.60016 -0.35944,0.0902 -0.51242,0.0136 -0.54015,-0.27052 -0.0228,-0.23385 0.0338,-0.31012 0.508,-0.68415 0.29353,-0.23153 0.88556,-0.75096 1.31562,-1.15428 0.54962,-0.51545 0.84454,-0.73332 0.99266,-0.73332 0.13536,0 0.4159,0.17759 0.7844,0.49656 0.70885,0.61356 1.63201,1.57374 1.63201,1.69744 0,0.13255 -0.3174,0.43066 -0.45851,0.43066 -0.0659,0 -0.43109,-0.28575 -0.81149,-0.635 -0.3804,-0.34925 -0.72652,-0.635 -0.76916,-0.635 -0.0661,0 -0.13262,2.59227 -0.0792,3.08521 0.01,0.0903 0.47098,0.64277 1.02488,1.22767 0.62348,0.65837 1.00743,1.13102 1.00796,1.24083 10e-4,0.20276 -0.24489,0.45763 -0.44149,0.45763 -0.1225,0 -0.67952,-0.53408 -1.19209,-1.143 -0.1176,-0.1397 -0.23609,-0.23179 -0.26333,-0.20463 -0.0272,0.0271 -0.0744,0.79181 -0.10477,1.69923 l -0.0553,1.64986 0.85957,0.94764 c 0.47277,0.5212 0.85958,1.00432 0.85958,1.0736 0,0.20136 -0.3158,0.46741 -0.48492,0.40854 -0.0825,-0.0287 -0.34639,-0.24197 -0.58632,-0.47385 -0.23992,-0.23189 -0.47805,-0.39576 -0.52916,-0.36417 -0.0616,0.0381 -0.0923,0.53409 -0.0911,1.47061 0.002,1.66009 0.0451,1.80128 0.80359,2.64627 0.97836,1.08985 1.16887,1.49221 0.80002,1.68961 -0.27031,0.14467 -0.46099,0.0316 -0.93785,-0.55614 -0.24375,-0.30043 -0.47463,-0.54624 -0.51307,-0.54624 -0.11266,0 -0.0865,4.12824 0.0275,4.34473 0.0536,0.10172 0.29583,0.40035 0.53833,0.66363 0.49983,0.54265 0.58365,0.74735 0.40844,0.9975 -0.15633,0.22319 -0.36888,0.22184 -0.65621,-0.004 -0.12515,-0.0984 -0.2395,-0.16512 -0.25412,-0.14817 -0.0146,0.0169 -0.0526,0.64495 -0.0844,1.39554 l -0.0579,1.36472 1.06295,1.33146 c 0.58462,0.7323 1.08607,1.4236 1.11433,1.53621 0.11591,0.46183 -0.41824,0.61896 -0.76051,0.22373 -0.11089,-0.12806 -0.44456,-0.51825 -0.74148,-0.8671 l -0.53986,-0.63426 -0.0423,0.2956 c -0.0233,0.16257 -0.0421,0.82899 -0.0418,1.48092 4.8e-4,1.07803 0.0195,1.22749 0.20978,1.651 0.11509,0.25612 0.40262,0.69427 0.63896,0.97367 0.86211,1.0192 1.06501,1.48203 0.7605,1.73475 -0.22692,0.18833 -0.50007,0.017 -0.93243,-0.58476 -0.23284,-0.32407 -0.45191,-0.59157 -0.48684,-0.59444 -0.0349,-0.003 -0.0635,0.2174 -0.0635,0.48949 0,0.27209 -0.024,0.94836 -0.0534,1.50283 l -0.0534,1.00813 0.69098,0.80433 c 0.7082,0.82438 0.85898,1.10999 0.71094,1.34661 -0.17635,0.28183 -0.48337,0.20794 -0.86748,-0.20877 -0.2802,-0.30398 -0.38133,-0.36812 -0.44043,-0.27937 -0.0422,0.0634 -0.0661,0.801 -0.0531,1.6392 0.023,1.48658 0.0292,1.53335 0.25281,1.905 0.12606,0.20955 0.49854,0.68319 0.82774,1.05253 0.6279,0.70448 0.76658,0.98324 0.59314,1.19224 -0.21474,0.25874 -0.50073,0.14585 -1.01149,-0.39926 l -0.49206,-0.52516 -0.0623,1.4133 c -0.0738,1.67405 -0.0389,2.28447 0.15362,2.6851 0.0784,0.16303 0.44529,0.65833 0.81541,1.10066 0.82832,0.98995 1.01132,1.30119 0.88433,1.50402 -0.0506,0.0808 -0.20433,0.15827 -0.34166,0.17217 -0.22024,0.0223 -0.31717,-0.0554 -0.82179,-0.65818 -0.31465,-0.3759 -0.60802,-0.66125 -0.65194,-0.63411 -0.0441,0.0272 -0.0798,0.59905 -0.0798,1.27622 0,0.96097 0.0296,1.28561 0.13671,1.49784 0.0752,0.14903 0.55144,0.69374 1.05834,1.21046 0.50689,0.51673 0.92162,1.0025 0.92162,1.0795 0,0.21272 -0.31032,0.48332 -0.48491,0.42284 -0.0825,-0.0286 -0.43995,-0.33578 -0.79423,-0.68264 l -0.64414,-0.63064 -0.0544,0.2718 c -0.0299,0.1495 -0.0544,0.77296 -0.0544,1.38548 v 1.11367 l 0.67644,0.80191 c 0.37204,0.44105 0.67684,0.86587 0.67733,0.94403 0.001,0.19184 -0.22741,0.40822 -0.43131,0.40822 -0.0914,0 -0.302,-0.13589 -0.46808,-0.30198 -0.16609,-0.16609 -0.3122,-0.28991 -0.32468,-0.27517 -0.0125,0.0147 -0.0493,0.72397 -0.0818,1.57606 l -0.0591,1.54924 0.93693,0.95978 c 0.91181,0.93405 1.05295,1.16819 0.83534,1.3858 -0.20647,0.20646 -0.49144,0.10262 -0.99907,-0.36406 -0.27859,-0.25612 -0.54095,-0.46567 -0.58301,-0.46567 -0.0959,0 -0.17214,2.02864 -0.0827,2.20133 0.0362,0.0698 0.42918,0.508 0.87334,0.97367 0.79322,0.83163 0.92642,1.07576 0.70678,1.2954 -0.2107,0.2107 -0.46227,0.0867 -1.1684,-0.57573 z m -3.35464,-64.553 c -0.34137,-0.14857 -0.54003,-0.43769 -0.54003,-0.78593 0,-0.37056 0.46275,-0.87905 1.07061,-1.17645 0.25453,-0.12454 0.4321,-0.25079 0.39459,-0.28057 -0.0375,-0.0298 -0.29399,-0.20498 -0.56995,-0.38935 -0.53161,-0.35515 -0.97991,-0.94569 -0.97991,-1.29079 0,-0.56067 0.99928,-0.96927 1.90874,-0.78047 0.64706,0.13433 1.62998,0.65035 2.53626,1.33151 1.06597,0.80118 1.06113,0.95125 -0.06,1.86189 -1.80318,1.46461 -2.87547,1.89525 -3.76027,1.51016 z M 26.992064,204.66923 c -0.58112,-0.23908 -1.293169,-0.67237 -2.069688,-1.25943 -0.931175,-0.70398 -0.88608,-0.87888 0.508,-1.97035 0.652323,-0.51072 1.59497,-1.12386 1.947333,-1.26664 1.008969,-0.40884 2.074333,-0.0169 2.074333,0.76318 0,0.38334 -0.452729,0.8865 -1.068911,1.18797 l -0.461098,0.22559 0.509489,0.3329 c 0.861403,0.56284 1.263565,1.22216 1.021439,1.67457 -0.272184,0.50858 -1.580215,0.67453 -2.460897,0.31221 z m -1.191649,-6.68975 c -0.755684,-0.66315 -1.513039,-1.44248 -1.513039,-1.55694 0,-0.15866 0.275367,-0.4458 0.42752,-0.4458 0.09015,0 0.474238,0.28575 0.853518,0.635 0.37928,0.34925 0.722457,0.635 0.762614,0.635 0.04016,0 0.07301,-0.7285 0.07301,-1.61889 v -1.6189 l -1.016,-1.08021 c -0.587336,-0.62445 -1.016,-1.15043 -1.016,-1.24665 0,-0.19908 0.252216,-0.44668 0.455015,-0.44668 0.07994,0 0.229341,0.0884 0.332,0.19647 0.102658,0.10806 0.396201,0.41893 0.652318,0.69083 l 0.465667,0.49436 0.05453,-0.75433 c 0.02999,-0.41488 0.05793,-1.19248 0.06208,-1.728 l 0.0075,-0.97367 -0.845251,-0.91053 c -0.466855,-0.50292 -0.845251,-0.98403 -0.845251,-1.0747 0,-0.15358 0.287453,-0.42777 0.448458,-0.42777 0.03966,0 0.295626,0.2132 0.568807,0.47377 0.273182,0.26057 0.537054,0.44882 0.586382,0.41834 0.05747,-0.0355 0.08902,-0.56312 0.08783,-1.4686 -0.0022,-1.68483 -0.03345,-1.78079 -0.902764,-2.7736 -0.915219,-1.04525 -1.043866,-1.31368 -0.747476,-1.55966 0.222028,-0.18427 0.522156,-0.0163 0.980653,0.5488 0.245858,0.30303 0.478461,0.55095 0.516897,0.55095 0.113213,0 0.08646,-4.12853 -0.02816,-4.34473 -0.05392,-0.10171 -0.29771,-0.40623 -0.541752,-0.67671 -0.504894,-0.55959 -0.577737,-0.73691 -0.404383,-0.98441 0.156333,-0.2232 0.368878,-0.22185 0.656215,0.004 0.125148,0.0984 0.239363,0.16512 0.253809,0.14817 0.01445,-0.017 0.05159,-0.64726 0.08255,-1.40068 l 0.05629,-1.36987 -1.008604,-1.26333 c -1.051297,-1.31682 -1.197414,-1.52997 -1.197414,-1.74675 0,-0.18239 0.383579,-0.41966 0.536342,-0.33178 0.06716,0.0386 0.41051,0.41945 0.762995,0.84623 0.352484,0.42678 0.674987,0.79705 0.716673,0.82281 0.04238,0.0262 0.100866,-0.5025 0.132668,-1.1993 0.08062,-1.76637 -0.05516,-2.22883 -0.962059,-3.27666 -0.710957,-0.82145 -0.89995,-1.23085 -0.688659,-1.49178 0.239995,-0.29638 0.501417,-0.16187 1.011606,0.52052 0.248178,0.33194 0.462546,0.59068 0.476373,0.57498 0.01383,-0.0157 0.052,-0.69577 0.08482,-1.51126 l 0.05967,-1.48273 -0.73133,-0.87459 c -0.616397,-0.73715 -0.727251,-0.91517 -0.705381,-1.13281 0.01823,-0.18144 0.0858,-0.28019 0.227269,-0.33212 0.173538,-0.0637 0.260266,-0.015 0.628447,0.35321 0.314062,0.31406 0.446314,0.39845 0.499614,0.31878 0.03987,-0.0596 0.06178,-0.79415 0.04869,-1.63235 -0.02808,-1.79832 -0.03084,-1.80612 -1.03305,-2.91089 -0.73804,-0.81356 -0.845935,-1.06292 -0.560076,-1.2944 0.105313,-0.0853 0.233483,-0.15505 0.284822,-0.15505 0.05134,0 0.326803,0.25133 0.61214,0.55852 l 0.518794,0.55852 0.05547,-1.08769 c 0.126962,-2.48949 0.06138,-2.90945 -0.567133,-3.63146 -0.692744,-0.7958 -1.324043,-1.66517 -1.324043,-1.82335 0,-0.1938 0.350743,-0.43908 0.529677,-0.37042 0.07161,0.0275 0.386566,0.35623 0.699898,0.73055 0.421452,0.50348 0.58862,0.65071 0.64243,0.56579 0.04,-0.0631 0.07332,-0.64056 0.07403,-1.28316 0.001,-0.90908 -0.02904,-1.22851 -0.135413,-1.43934 -0.07519,-0.14902 -0.551441,-0.69373 -1.058334,-1.21046 -0.580665,-0.59193 -0.921623,-1.00518 -0.921623,-1.11703 0,-0.21384 0.303945,-0.44695 0.496553,-0.38084 0.07615,0.0261 0.428123,0.33113 0.782172,0.67776 l 0.643725,0.63024 0.05477,-0.39963 c 0.03013,-0.2198 0.05478,-0.8473 0.05478,-1.39444 v -0.99482 l -0.637032,-0.74356 c -0.667161,-0.77872 -0.805859,-1.05652 -0.632056,-1.26594 0.170077,-0.20493 0.502213,-0.14903 0.761088,0.1281 0.360571,0.38599 0.423333,0.33146 0.423333,-0.36783 0,-0.34201 0.02475,-1.02638 0.05501,-1.52083 l 0.05501,-0.899 -0.944006,-0.96703 c -0.552509,-0.56598 -0.944006,-1.03588 -0.944006,-1.13305 0,-0.0913 0.07303,-0.23211 0.16229,-0.31289 0.204183,-0.18478 0.373448,-0.10555 1.0087,0.47217 0.248228,0.22575 0.486353,0.41046 0.529167,0.41046 0.06536,0 0.132343,-1.80335 0.08177,-2.20134 -0.0089,-0.0699 -0.39439,-0.50865 -0.856698,-0.97511 -0.884668,-0.89262 -0.991518,-1.11088 -0.658136,-1.34439 0.233785,-0.16375 0.295057,-0.12833 1.143181,0.66087 0.379832,0.35345 0.727017,0.64263 0.771523,0.64263 0.04451,0 0.362385,-0.20975 0.706397,-0.46611 0.344011,-0.25635 0.711696,-0.48921 0.817075,-0.51745 0.254152,-0.0681 0.443401,0.10153 0.443401,0.39746 0,0.20032 -0.111301,0.32455 -0.675743,0.75423 -0.371659,0.28291 -0.711287,0.58081 -0.75473,0.66198 -0.04586,0.0857 -0.05541,0.61687 -0.02276,1.26656 l 0.05623,1.11897 0.587849,-0.46886 c 0.674522,-0.538 0.959763,-0.58413 1.101714,-0.17819 0.09127,0.26101 0.08161,0.27236 -1.247131,1.46478 l -0.484765,0.43503 v 1.53347 c 0,0.8434 0.0333,1.53347 0.07399,1.53347 0.0407,0 0.275344,-0.3067 0.521441,-0.68155 0.491444,-0.74856 0.62344,-0.85774 0.9074,-0.75051 0.36429,0.13756 0.285293,0.45122 -0.381988,1.51672 -0.9169,1.46409 -1.073508,1.85736 -1.108166,2.78279 -0.03429,0.91564 0.04511,1.70455 0.171567,1.70455 0.04807,0 0.426959,-0.3048 0.841981,-0.67734 0.415023,-0.37253 0.824248,-0.67733 0.909391,-0.67733 0.176515,0 0.435048,0.25277 0.435048,0.42535 0,0.0636 -0.51159,0.61307 -1.136867,1.221 l -1.136867,1.10532 -0.05283,1.50283 c -0.03573,1.0164 -0.02437,1.50283 0.03509,1.50283 0.04836,0 0.409089,-0.28575 0.80163,-0.635 0.702831,-0.62532 0.933736,-0.7339 1.134241,-0.5334 0.253249,0.25325 0.110615,0.50231 -0.783952,1.36889 -0.525074,0.50865 -0.938653,0.98598 -1.016,1.17263 -0.179611,0.43341 -0.193778,3.53755 -0.01615,3.53755 0.06287,0 0.311046,-0.2262 0.55151,-0.50267 0.240464,-0.27647 0.515608,-0.52755 0.611431,-0.55796 0.193283,-0.0614 0.500756,0.16002 0.500756,0.36052 0,0.0662 -0.30572,0.52699 -0.679377,1.02404 -1.064423,1.41594 -1.046996,1.3603 -1.023127,3.26644 0.01111,0.88745 0.03682,1.63016 0.05712,1.65047 0.0203,0.0203 0.323055,-0.24054 0.672781,-0.57965 0.607201,-0.58877 0.644409,-0.61092 0.8254,-0.49144 0.380149,0.25096 0.296376,0.489 -0.488247,1.38736 -1.081624,1.2384 -1.057885,1.17034 -1.057885,3.03318 0,1.24491 0.02316,1.56971 0.111929,1.56971 0.06156,0 0.375886,-0.2295 0.6985,-0.51 0.322614,-0.2805 0.673831,-0.53266 0.780482,-0.56037 0.201407,-0.0523 0.525755,0.16151 0.525755,0.34661 0,0.0532 -0.403874,0.49493 -0.897498,0.98171 -0.493624,0.48677 -0.958049,0.99935 -1.032057,1.13905 -0.104682,0.1976 -0.142691,0.60815 -0.171185,1.84902 l -0.03663,1.59503 0.243183,-0.12788 c 0.133751,-0.0703 0.432251,-0.32138 0.663334,-0.55786 0.30384,-0.31095 0.484662,-0.42998 0.653188,-0.42998 0.224804,0 0.408328,0.19328 0.408328,0.43004 0,0.0564 -0.37852,0.48751 -0.841156,0.95807 -0.462636,0.47056 -0.883232,0.96675 -0.934658,1.10265 -0.05143,0.1359 -0.107944,0.84995 -0.125595,1.58678 -0.03727,1.55591 -0.0816,1.52107 0.798297,0.62752 0.543491,-0.55193 0.791675,-0.66463 1.001512,-0.45479 0.212046,0.21204 0.0862,0.47704 -0.617617,1.30054 -1.071736,1.25399 -1.085413,1.29258 -1.123551,3.16986 -0.0175,0.86148 6.07e-4,1.71616 0.04024,1.89928 l 0.07206,0.33295 0.581117,-0.73329 c 0.611724,-0.77191 0.780236,-0.88917 1.061481,-0.73865 0.341475,0.18275 0.219843,0.49982 -0.574504,1.49759 -0.786394,0.98779 -1.069282,1.51618 -1.148278,2.14478 -0.02633,0.20955 -0.02024,1.04553 0.01355,1.85772 l 0.06143,1.47672 0.82369,-0.93721 c 0.45303,-0.51546 0.89824,-0.95669 0.989356,-0.98052 0.216119,-0.0565 0.515287,0.15649 0.515287,0.36688 0,0.0909 -0.491083,0.75014 -1.091294,1.46492 -0.600212,0.71478 -1.133612,1.37867 -1.185334,1.47531 -0.128251,0.23964 -0.12912,3.20318 -9.62e-4,3.28238 0.05148,0.0318 0.306857,-0.15081 0.5715,-0.40871 0.676553,-0.65931 0.907403,-0.76408 1.149709,-0.52177 0.271773,0.27177 0.157522,0.47775 -0.747867,1.34828 -1.083958,1.04223 -1.110297,1.11238 -1.009543,2.68883 l 0.07012,1.09721 0.584496,-0.4796 c 0.766905,-0.62926 1.18249,-0.84294 1.406374,-0.72313 0.109066,0.0584 0.16813,0.17723 0.16813,0.33834 0,0.20307 -0.08542,0.31145 -0.468593,0.59452 -0.257725,0.19039 -0.84926,0.70594 -1.31452,1.14567 -0.575047,0.54348 -0.909738,0.7995 -1.045201,0.7995 -0.126847,0 -0.456853,-0.22604 -0.90798,-0.62193 z m 154.975065,0.3527 c -0.69147,-0.58094 -1.88678,-1.80901 -1.88678,-1.93848 0,-0.17094 0.26409,-0.41696 0.44759,-0.41696 0.0759,0 0.45327,0.29491 0.8387,0.65535 l 0.70077,0.65536 0.0599,-0.33786 c 0.033,-0.18582 0.0621,-0.92401 0.0648,-1.64042 l 0.005,-1.30257 -0.74448,-0.77176 c -1.31114,-1.35921 -1.3842,-1.4571 -1.27173,-1.70396 0.0539,-0.11817 0.19353,-0.23887 0.31041,-0.2682 0.18418,-0.0462 0.30112,0.0402 0.87739,0.64823 0.36568,0.38587 0.67756,0.68701 0.69306,0.6692 0.0155,-0.0178 0.0545,-0.78214 0.0866,-1.69853 l 0.0585,-1.66617 -0.81102,-0.87383 c -0.44606,-0.48061 -0.83377,-0.9611 -0.86157,-1.06775 -0.0555,-0.21276 0.16475,-0.52576 0.36992,-0.52576 0.0661,0 0.34826,0.21757 0.62704,0.48348 0.4016,0.38307 0.52256,0.4581 0.5824,0.36128 0.0415,-0.0672 0.0678,-0.77055 0.0583,-1.56298 -0.0199,-1.66837 -0.006,-1.63073 -1.00346,-2.74663 -0.31531,-0.35281 -0.64057,-0.76518 -0.72278,-0.91636 -0.14575,-0.26802 -0.14497,-0.2794 0.0312,-0.45561 0.27154,-0.27155 0.52295,-0.15636 1.03428,0.47386 0.24675,0.30413 0.48296,0.55296 0.52492,0.55296 0.10802,0 0.0976,-3.99693 -0.0112,-4.28302 -0.0481,-0.12653 -0.2929,-0.45195 -0.54398,-0.72315 -0.54237,-0.58583 -0.62561,-0.78557 -0.42139,-1.01123 0.19098,-0.21103 0.38236,-0.20651 0.66488,0.0157 0.12515,0.0984 0.2432,0.16333 0.26233,0.1442 0.0191,-0.0191 0.0394,-0.667 0.045,-1.4397 l 0.0102,-1.40491 -1.06545,-1.33705 c -0.66618,-0.83599 -1.06545,-1.40985 -1.06545,-1.53133 0,-0.11483 0.0883,-0.25214 0.21589,-0.33575 0.20995,-0.13756 0.22337,-0.13419 0.48684,0.12224 0.14901,0.14503 0.46143,0.50876 0.69427,0.80828 0.7003,0.90088 0.71622,0.89613 0.7397,-0.22074 0.0435,-2.0668 -0.0635,-2.48951 -0.87563,-3.46157 -0.9032,-1.08103 -1.09841,-1.58851 -0.66408,-1.72636 0.28533,-0.0906 0.44904,0.0267 0.88467,0.63354 0.23284,0.32435 0.4494,0.59103 0.48126,0.59262 0.0884,0.004 0.12349,-2.89498 0.0373,-3.08187 -0.0415,-0.0901 -0.35031,-0.49011 -0.68616,-0.889 -0.67915,-0.80663 -0.76031,-0.96001 -0.63345,-1.19705 0.16187,-0.30246 0.53458,-0.20912 0.92188,0.23089 0.19079,0.21674 0.3745,0.36648 0.40824,0.33274 0.0337,-0.0337 0.0619,-0.75401 0.0625,-1.60059 0.001,-1.84275 -0.018,-1.89846 -1.05761,-3.05291 -0.73807,-0.81957 -0.82263,-1.05395 -0.46484,-1.28839 0.2522,-0.16525 0.29175,-0.14191 0.93808,0.55368 l 0.43051,0.46332 0.0559,-1.7341 c 0.069,-2.14044 0.0312,-2.30122 -0.75477,-3.21184 -0.6451,-0.74735 -1.13583,-1.44555 -1.13583,-1.61603 0,-0.20512 0.37218,-0.45314 0.53904,-0.35922 0.0686,0.0386 0.38223,0.37209 0.69683,0.741 0.68887,0.80777 0.69098,0.80556 0.70219,-0.73864 0.006,-0.78281 -0.0271,-1.16761 -0.11804,-1.38525 -0.0693,-0.16574 -0.54518,-0.73085 -1.05763,-1.25579 -0.57519,-0.58922 -0.93172,-1.02116 -0.93172,-1.12879 0,-0.2112 0.30521,-0.44333 0.49655,-0.37765 0.0762,0.0261 0.43372,0.3367 0.79462,0.69013 l 0.65616,0.6426 v -0.38688 c 0,-0.21279 0.0232,-0.84055 0.0515,-1.39502 l 0.0515,-1.00812 -0.68647,-0.79914 c -0.38979,-0.45375 -0.68648,-0.87639 -0.68648,-0.9779 0,-0.4394 0.49116,-0.51505 0.83083,-0.12796 0.40953,0.46671 0.43824,0.38961 0.4492,-1.2065 0.006,-0.80328 0.003,-1.51765 -0.006,-1.5875 -0.009,-0.0699 -0.41343,-0.52768 -0.89903,-1.01739 -0.91781,-0.92557 -1.0185,-1.11967 -0.72063,-1.38924 0.20605,-0.18647 0.38568,-0.1016 0.99681,0.47094 0.24169,0.22643 0.47981,0.41169 0.52917,0.41169 0.0587,0 0.0896,-0.38783 0.0892,-1.12184 l -5.1e-4,-1.12183 -0.84616,-0.86547 c -0.89561,-0.91606 -0.99796,-1.1299 -0.67899,-1.41857 0.21074,-0.19071 0.30711,-0.13262 1.17414,0.70781 0.3419,0.33141 0.66857,0.60256 0.72595,0.60256 0.0574,0 0.38633,-0.21098 0.73102,-0.46886 0.34468,-0.25787 0.71382,-0.49072 0.82031,-0.51745 0.25586,-0.0642 0.44542,0.10431 0.44542,0.396 0,0.19344 -0.10615,0.31431 -0.59305,0.67526 -0.87779,0.65073 -0.93109,0.73991 -0.93022,1.5563 4.1e-4,0.3779 0.0246,0.8853 0.0537,1.12757 l 0.0529,0.44048 0.59001,-0.46165 c 0.62035,-0.48539 0.8139,-0.547 1.03231,-0.3286 0.27445,0.27445 0.20647,0.37073 -1.07487,1.52231 l -0.57008,0.51236 v 1.55117 c 0,1.78158 -0.0204,1.76011 0.6826,0.7183 0.44427,-0.65837 0.53322,-0.72548 0.82023,-0.61879 0.13537,0.0503 0.1902,0.13898 0.18948,0.30637 -0.001,0.24695 -0.0734,0.38508 -0.92118,1.75957 -0.65361,1.05964 -0.77113,1.4475 -0.77113,2.54478 0,0.94136 0.0607,1.39222 0.18733,1.39222 0.0448,0 0.3925,-0.28696 0.77259,-0.63768 0.79233,-0.73111 1.02638,-0.83424 1.25435,-0.5527 0.21818,0.26944 0.12096,0.41019 -1.02894,1.48956 -0.53552,0.50267 -0.99856,0.95531 -1.02899,1.00588 -0.0304,0.0506 -0.0831,0.76821 -0.11712,1.59477 -0.0459,1.11613 -0.0366,1.50283 0.036,1.50283 0.0538,0 0.40341,-0.28575 0.77687,-0.635 0.6934,-0.64846 0.96569,-0.76605 1.17894,-0.5091 0.19518,0.23518 0.002,0.54154 -0.89107,1.41573 -0.61471,0.60149 -0.91741,0.96315 -0.97731,1.16771 -0.0505,0.17238 -0.0761,0.98691 -0.0612,1.94733 l 0.0255,1.651 0.59714,-0.61383 c 0.32843,-0.33761 0.66093,-0.61384 0.73888,-0.61384 0.078,0 0.20369,0.0945 0.2794,0.2101 0.16283,0.24851 0.13397,0.30675 -0.67238,1.35721 -0.9667,1.25935 -0.94646,1.19153 -0.92025,3.08394 0.0125,0.90506 0.0451,1.66706 0.0724,1.69333 0.0273,0.0263 0.26469,-0.18441 0.52753,-0.46816 0.60362,-0.65164 0.77126,-0.74675 1.01515,-0.57592 0.31918,0.22356 0.22056,0.45598 -0.5892,1.38854 -0.42439,0.48874 -0.82444,1.01123 -0.889,1.16108 -0.16068,0.37294 -0.17097,3.41111 -0.0115,3.40943 0.0582,-6.1e-4 0.37254,-0.22972 0.6985,-0.50912 0.63868,-0.54746 0.90396,-0.66901 1.10177,-0.50485 0.27496,0.2282 0.1385,0.46223 -0.79487,1.3632 -1.10418,1.06586 -1.11123,1.08571 -1.11123,3.12956 v 1.35268 l 0.23283,-0.12254 c 0.12806,-0.0674 0.4219,-0.31602 0.65299,-0.5525 0.41932,-0.42913 0.67759,-0.52603 0.87525,-0.32838 0.24963,0.24964 0.11127,0.51674 -0.66622,1.28614 -0.42229,0.41789 -0.82851,0.87669 -0.9027,1.01954 -0.10343,0.19913 -0.14092,0.58102 -0.16072,1.63703 -0.03,1.60021 -0.0757,1.56305 0.81279,0.66075 0.5587,-0.56737 0.81422,-0.67547 1.01753,-0.43049 0.17627,0.21238 0.0346,0.48365 -0.68697,1.31517 -1.02144,1.17716 -1.04224,1.23865 -1.07523,3.17951 -0.0151,0.88821 0.005,1.73982 0.0445,1.89248 l 0.0719,0.27756 0.54411,-0.69214 c 0.29925,-0.38067 0.61517,-0.73017 0.70204,-0.77666 0.20081,-0.10747 0.56991,0.11498 0.56991,0.34348 0,0.16027 -0.44567,0.80342 -1.0905,1.5737 -0.46353,0.5537 -0.75765,1.18525 -0.81397,1.74777 -0.025,0.24946 -0.0163,1.0958 0.0194,1.88076 l 0.0648,1.42721 0.74928,-0.85929 c 0.41211,-0.47262 0.84074,-0.91921 0.9525,-0.99245 0.1854,-0.12147 0.22177,-0.12099 0.41488,0.006 0.11642,0.0763 0.21167,0.20862 0.21167,0.2941 0,0.0855 -0.5334,0.79213 -1.18533,1.57036 l -1.18534,1.41494 v 1.64503 c 0,1.28518 0.0238,1.64502 0.10902,1.64502 0.06,0 0.29808,-0.19349 0.52916,-0.42998 0.39716,-0.40644 0.77549,-0.67069 0.96024,-0.67069 0.13326,0 0.34907,0.25378 0.34713,0.40822 -0.002,0.13951 -0.66036,0.87223 -1.30509,1.45195 -0.48951,0.44015 -0.63812,0.84054 -0.62941,1.69583 0.004,0.39582 0.0318,0.93965 0.0616,1.20851 l 0.0543,0.48885 0.42334,-0.35089 c 0.97435,-0.8076 1.3827,-1.01001 1.59974,-0.79296 0.25353,0.25353 0.16693,0.509 -0.28184,0.83141 -0.22977,0.16507 -0.82087,0.68299 -1.31354,1.15094 -1.0103,0.95958 -1.13038,1.00239 -1.63125,0.58158 z m -78.35747,-65.28394 c -2.42911,-2.40818 -3.397764,-3.82533 -4.01337,-5.8716 -0.310494,-1.03208 -0.33055,-2.16899 -0.04914,-2.78556 0.213532,-0.46786 0.610127,-0.92278 0.967759,-1.1101 0.661792,-0.34662 1.647341,-0.30004 2.502631,0.1183 0.53775,0.26301 1.39423,1.13948 1.79078,1.83258 0.15267,0.26685 0.30523,0.45354 0.33902,0.41487 0.0338,-0.0387 0.26427,-0.36802 0.51219,-0.73188 0.74883,-1.09901 1.53067,-1.66719 2.51146,-1.82515 0.93118,-0.14996 1.85112,0.186 2.27874,0.83217 1.05811,1.59892 0.21888,4.56017 -2.06456,7.28487 -0.8152,0.97273 -3.09275,3.21734 -3.26456,3.21734 -0.0677,0 -0.74767,-0.61913 -1.51095,-1.37584 z m 3.54337,-1.49525 c 1.14501,-1.26148 1.75855,-2.11895 2.27719,-3.18258 1.08053,-2.21596 1.0607,-3.91476 -0.0524,-4.49037 -0.37796,-0.19546 -1.22921,-0.15837 -1.72978,0.0753 -0.5692,0.26577 -1.33396,1.10487 -1.86735,2.04886 -0.34794,0.61578 -0.46909,0.76235 -0.64759,0.78346 -0.19437,0.023 -0.2598,-0.0469 -0.56997,-0.60881 -0.71411,-1.29364 -1.40469,-2.03619 -2.14884,-2.31055 -0.37551,-0.13845 -1.1934,-0.13538 -1.531148,0.006 -0.411414,0.1719 -0.719183,0.6254 -0.830441,1.22366 -0.07836,0.42135 -0.06997,0.64054 0.04735,1.23765 0.387564,1.97251 1.381339,3.56768 3.678879,5.90519 l 1.30743,1.33019 0.63332,-0.56819 c 0.34832,-0.3125 0.99333,-0.96482 1.43336,-1.4496 z m -74.318303,1.32284 c -1.657003,-0.57042 -2.626964,-2.15082 -2.358669,-3.84309 0.106385,-0.67103 0.403101,-1.37116 0.712012,-1.68007 0.180429,-0.18043 0.245586,-0.20092 0.391172,-0.123 0.273871,0.14657 0.28715,0.31568 0.05152,0.65619 -0.503545,0.72767 -0.64711,1.77189 -0.360673,2.62336 0.322647,0.95911 1.386935,1.75916 2.487315,1.86977 0.390265,0.0392 0.578612,0.0987 0.644568,0.20359 0.289703,0.46063 -0.598329,0.62679 -1.567247,0.29325 z m 143.033433,0.065 c -0.046,-0.0822 -0.0651,-0.22072 -0.0423,-0.30775 0.0434,-0.16612 0.14355,-0.20031 0.81198,-0.27734 0.94711,-0.10915 1.76449,-0.68841 2.18945,-1.55164 0.24613,-0.49996 0.27938,-0.64886 0.27938,-1.25101 0,-0.61917 -0.0299,-0.74396 -0.3175,-1.32592 -0.36496,-0.73845 -0.38417,-0.8735 -0.14261,-1.00277 0.15019,-0.0804 0.21507,-0.051 0.45932,0.20798 0.6019,0.6382 0.88166,2.0704 0.59751,3.05887 -0.40551,1.41065 -1.70128,2.46752 -3.13837,2.55974 -0.52349,0.0336 -0.62544,0.0175 -0.69687,-0.11016 z m -146.040161,-0.2879 c -0.580283,-0.35384 -0.962307,-1.12639 -0.962307,-1.94603 0,-0.6988 0.298767,-1.052 0.618994,-0.73178 0.08621,0.0862 0.110269,0.23682 0.0803,0.50271 -0.07266,0.64469 0.03627,0.96506 0.492013,1.44694 0.454725,0.4808 0.483744,0.55812 0.284314,0.75755 -0.168072,0.16807 -0.191696,0.16672 -0.513313,-0.0294 z m 150.099951,0.0608 c -0.18141,-0.18141 -0.11393,-0.47076 0.15432,-0.66177 0.41746,-0.29726 0.62688,-0.79469 0.61111,-1.4516 -0.0147,-0.61421 0.0921,-0.8047 0.39702,-0.70792 0.22595,0.0717 0.37611,0.63457 0.30383,1.13887 -0.0803,0.56003 -0.33794,1.04401 -0.76587,1.43845 -0.39374,0.36294 -0.53295,0.41143 -0.70041,0.24397 z m -113.17576,-0.0479 c -0.04757,-0.0342 -0.502665,-0.53846 -1.011311,-1.12054 -2.664451,-3.04914 -4.772491,-4.68018 -7.104594,-5.49698 -1.891136,-0.66236 -3.574963,-0.67118 -5.232818,-0.0274 -0.61175,0.23755 -1.762442,0.92342 -1.762442,1.05052 0,0.0342 0.210018,0.20158 0.466708,0.37196 0.593879,0.3942 0.997943,0.86678 1.335474,1.56194 0.237655,0.48946 0.266699,0.62994 0.262573,1.27 -0.005,0.77985 -0.119778,1.14323 -0.505937,1.60216 -0.769069,0.91398 -2.256651,0.80951 -3.164866,-0.22228 -0.79033,-0.89786 -0.790428,-2.5378 -2.25e-4,-3.78322 0.181433,-0.28595 0.235326,-0.44081 0.174557,-0.50158 -0.04835,-0.0483 -0.500574,-0.10491 -1.00494,-0.12569 -1.741831,-0.0718 -2.954715,0.41989 -6.114677,2.47868 -2.746441,1.78936 -4.079277,2.38713 -5.782504,2.59339 -1.504191,0.18216 -2.952049,-0.26184 -3.874163,-1.18804 -0.566609,-0.56912 -0.843059,-1.11135 -0.902863,-1.77088 -0.118606,-1.30801 0.92363,-2.69809 1.965314,-2.62123 0.3136,0.0231 0.339216,0.0439 0.339216,0.27501 0,0.22252 -0.04539,0.26622 -0.41327,0.39784 -0.772047,0.27621 -1.186461,0.87635 -1.189671,1.72284 -0.0027,0.70515 0.32773,1.29905 0.997193,1.79244 0.692323,0.51024 1.402349,0.71546 2.468415,0.71347 1.795587,-0.003 3.021777,-0.52085 6.224371,-2.62692 1.777507,-1.16891 3.018342,-1.83084 4.062629,-2.16721 0.957749,-0.30849 2.314744,-0.38006 3.252122,-0.17152 l 0.643985,0.14328 0.44378,-0.39146 c 0.559142,-0.49323 1.763713,-1.09395 2.645112,-1.31914 2.848383,-0.72771 6.113611,0.25664 9.059333,2.73107 1.382667,1.16146 4.191,4.19597 4.191,4.52854 0,0.28113 -0.261228,0.44932 -0.467501,0.30099 z m -14.267953,-1.08829 c 0.401354,-0.33772 0.542558,-0.67686 0.542196,-1.30225 -2.46e-4,-0.42428 -0.05314,-0.66068 -0.230948,-1.0321 -0.244853,-0.51148 -0.892936,-1.17283 -1.433437,-1.46279 -0.308739,-0.16562 -0.311184,-0.16562 -0.439245,0 -0.07083,0.0916 -0.270058,0.44725 -0.442732,0.79033 -0.649035,1.28952 -0.405409,2.55787 0.585536,3.04837 0.521824,0.2583 1.081761,0.24189 1.41863,-0.0416 z m 48.837163,1.00492 c -0.0714,-0.0815 -0.473162,-0.60537 -0.892751,-1.16417 -1.704411,-2.2699 -2.99701,-3.47739 -4.563801,-4.26329 -1.597767,-0.80144 -3.613757,-0.88773 -5.105003,-0.2185 l -0.503574,0.226 0.48321,0.53964 c 1.649967,1.84268 1.790716,3.47833 0.36167,4.20298 -0.877815,0.44513 -1.785056,0.26075 -2.453481,-0.49862 -0.852161,-0.9681 -0.808379,-2.4916 0.107456,-3.73921 0.169711,-0.2312 0.308565,-0.44335 0.308565,-0.47145 0,-0.0957 -1.148258,-0.62973 -1.781647,-0.82863 -0.890046,-0.27949 -2.445598,-0.28094 -3.425353,-0.003 -1.374294,0.38959 -2.880751,1.25043 -5.301129,3.02922 -3.375327,2.48061 -5.099237,3.25272 -7.262495,3.25272 -2.504014,0 -4.489511,-1.38682 -5.046375,-3.52477 -0.443756,-1.70369 0.268984,-3.31568 1.800745,-4.07272 0.602325,-0.29769 0.696,-0.31885 1.41153,-0.31885 0.629877,0 0.837196,0.0349 1.16389,0.1958 0.53276,0.26241 1.028029,0.77363 1.31435,1.35668 0.204793,0.41703 0.235405,0.57884 0.234877,1.24152 -6.42e-4,0.8062 -0.147753,1.24524 -0.534417,1.59492 -0.309231,0.27966 -0.77835,-0.0198 -0.542233,-0.34608 0.65381,-0.90359 0.562867,-2.02529 -0.228351,-2.81651 -0.651874,-0.65187 -1.516941,-0.75795 -2.502287,-0.30685 -1.476742,0.67608 -1.980317,2.43386 -1.170855,4.08699 0.62376,1.27389 2.074413,2.11818 3.796879,2.20982 2.054795,0.10931 3.680595,-0.58482 6.960353,-2.9717 2.110086,-1.53565 2.994944,-2.10409 4.098774,-2.63309 1.47184,-0.70537 2.067728,-0.84816 3.54241,-0.84889 1.45153,-7.2e-4 1.997303,0.13446 3.3166,0.82149 l 0.818932,0.42645 0.239474,-0.17052 c 0.345645,-0.24612 1.233684,-0.59125 1.816181,-0.70585 0.641873,-0.12628 2.312479,-0.0499 2.995147,0.13686 0.71678,0.19614 1.991239,0.81388 2.654428,1.28662 1.150203,0.8199 2.531982,2.30434 3.935231,4.22761 0.57928,0.79396 0.63917,0.93804 0.46308,1.11413 -0.14507,0.14507 -0.3592,0.12552 -0.51003,-0.0466 z m -10.370774,-1.3392 c 0.323108,-0.2359 0.512616,-0.67249 0.452569,-1.04263 -0.08394,-0.51743 -0.567161,-1.35017 -1.14671,-1.97614 l -0.552287,-0.59652 -0.31678,0.35697 c -0.705678,0.7952 -0.85907,1.96241 -0.362619,2.75927 0.329325,0.52861 0.710534,0.73675 1.27246,0.69476 0.246034,-0.0184 0.524897,-0.10192 0.653367,-0.19571 z m 17.413154,1.31072 c -0.0798,-0.1492 -0.0471,-0.24454 0.21061,-0.61383 0.78583,-1.12588 1.94422,-2.54223 2.71429,-3.31869 1.8516,-1.86696 3.58086,-2.72266 5.6826,-2.81192 1.26733,-0.0538 2.04399,0.0985 2.99892,0.58808 l 0.66398,0.34044 0.25806,-0.18375 c 0.46122,-0.32842 1.50444,-0.76342 2.2666,-0.94512 0.61608,-0.14688 0.9212,-0.17047 1.76118,-0.13617 0.5588,0.0228 1.24071,0.10399 1.51535,0.18039 1.44355,0.40158 2.90602,1.18506 4.83465,2.59003 2.83306,2.06384 4.20592,2.91105 5.37633,3.31779 2.76966,0.96252 5.46799,0.15291 6.45824,-1.93774 0.25335,-0.5349 0.27276,-0.63911 0.27276,-1.46487 0,-0.8273 -0.0174,-0.92048 -0.2513,-1.34271 -0.57835,-1.04417 -1.85984,-1.65451 -2.88948,-1.37619 -0.8868,0.23971 -1.5053,1.0929 -1.5053,2.07649 0,0.41693 0.0488,0.60539 0.24863,0.96095 0.198,0.35223 0.22956,0.47261 0.15497,0.59106 -0.22857,0.36294 -0.52364,0.21267 -0.8613,-0.43861 -0.31929,-0.61586 -0.32039,-1.57863 -0.003,-2.26382 0.63548,-1.3701 1.97429,-1.96484 3.42863,-1.5231 1.46279,0.44431 2.30771,1.54924 2.3806,3.1132 0.0748,1.60519 -0.70176,3.03643 -2.11254,3.89343 -0.87712,0.53283 -1.58211,0.72507 -2.82365,0.76999 -0.98547,0.0357 -1.18928,0.017 -1.94734,-0.17844 -1.52284,-0.39256 -3.04683,-1.24403 -5.66127,-3.163 -2.72405,-1.99943 -4.15559,-2.74791 -5.87971,-3.07419 -1.16103,-0.21972 -2.74483,0.0407 -3.89436,0.64024 -0.67439,0.35175 -0.6608,0.31171 -0.2771,0.81631 0.74293,0.97703 0.9415,2.19872 0.50771,3.12357 -0.56933,1.21382 -1.75502,1.68305 -2.86066,1.13208 -0.63589,-0.31687 -0.8894,-0.72863 -0.92722,-1.50595 -0.0273,-0.56158 -0.007,-0.64472 0.31675,-1.28873 0.21909,-0.43596 0.55395,-0.91307 0.91312,-1.30101 0.53502,-0.57787 0.55808,-0.61922 0.40702,-0.72968 -0.53587,-0.39184 -1.93022,-0.67316 -2.9506,-0.59533 -2.56409,0.1956 -4.5801,1.6054 -7.09375,4.96068 -0.99984,1.33463 -1.21713,1.50116 -1.43283,1.09812 z m 12.37187,-1.28587 c 1.03308,-0.6962 1.06792,-2.20864 0.0774,-3.35911 l -0.25137,-0.29195 -0.26383,0.24962 c -1.11255,1.05264 -1.71259,2.4776 -1.2946,3.07437 0.37,0.52825 1.20106,0.68515 1.73242,0.32707 z m 22.3623,1.36091 c -0.20582,-0.20581 -0.0822,-0.42772 0.80394,-1.44311 2.41899,-2.77181 4.35443,-4.39182 6.39716,-5.35456 3.04897,-1.437 6.27382,-1.24676 8.50872,0.50192 l 0.59524,0.46575 0.58084,-0.12306 c 0.81821,-0.17336 1.96743,-0.15778 2.78217,0.0377 1.3368,0.32074 2.48131,0.90992 4.95936,2.55301 2.31044,1.53195 3.81483,2.21355 5.1939,2.35322 1.83267,0.18562 3.31801,-0.44094 3.90903,-1.64894 0.18647,-0.38113 0.21821,-0.54307 0.18809,-0.95953 -0.0617,-0.85363 -0.53661,-1.42897 -1.38023,-1.67228 -0.46542,-0.13423 -0.34108,-0.62149 0.15771,-0.61799 0.95655,0.007 1.82375,1.05596 1.89785,2.29625 0.0337,0.56411 0.0108,0.70802 -0.17878,1.12205 -0.43065,0.94068 -1.37973,1.70176 -2.55493,2.04885 -0.66548,0.19655 -2.06819,0.19745 -2.87564,0.002 -1.43649,-0.34798 -2.51019,-0.89249 -5.13078,-2.60199 -1.89782,-1.23802 -3.26832,-1.93757 -4.31391,-2.20198 -0.57537,-0.14549 -0.88181,-0.17216 -1.62602,-0.1415 -0.50436,0.0208 -0.95235,0.0731 -0.99552,0.11627 -0.0482,0.0482 0.0127,0.22539 0.15796,0.45925 1.14137,1.83795 0.74214,3.80676 -0.92176,4.54581 -0.16565,0.0736 -0.53084,0.13166 -0.82808,0.13171 -0.68255,1.1e-4 -1.20888,-0.30109 -1.58268,-0.9057 -0.24294,-0.39294 -0.25624,-0.46094 -0.25624,-1.31009 0,-0.82113 0.0201,-0.9338 0.24144,-1.35431 0.29655,-0.56337 0.98469,-1.30401 1.48279,-1.59591 l 0.37193,-0.21797 -0.28608,-0.2418 c -0.38936,-0.32909 -1.68849,-0.95605 -2.36041,-1.13913 -0.81426,-0.22186 -2.69239,-0.202 -3.57277,0.0378 -2.73062,0.74373 -4.94992,2.35834 -7.96645,5.79587 -0.56188,0.64029 -1.08339,1.16416 -1.15892,1.16416 -0.0755,0 -0.18305,-0.0457 -0.23893,-0.1016 z m 16.06246,-0.99535 c 0.68853,-0.35127 0.97478,-0.93786 0.92454,-1.89461 -0.0325,-0.61891 -0.34187,-1.42938 -0.72789,-1.90684 l -0.16121,-0.19941 -0.33158,0.16955 c -0.18237,0.0933 -0.50432,0.32185 -0.71544,0.50798 -1.06641,0.94022 -1.2532,2.61617 -0.36909,3.31161 0.29579,0.23267 0.9369,0.23811 1.38067,0.0117 z m -131.329049,0.86412 c -0.368227,-0.42214 -0.44294,-1.05026 -0.143959,-1.21027 0.140708,-0.0753 0.209197,-0.0647 0.338667,0.0525 0.08926,0.0808 0.16229,0.21587 0.16229,0.30021 0,0.0843 0.06333,0.28615 0.140742,0.44847 0.115654,0.24253 0.121352,0.31851 0.03197,0.42621 -0.14393,0.17342 -0.369879,0.16613 -0.529707,-0.0171 z m 154.083429,0.0917 c -0.0961,-0.0961 -0.0624,-0.42073 0.07,-0.67471 0.0696,-0.13338 0.12671,-0.30785 0.127,-0.3877 6.3e-4,-0.17559 0.27709,-0.33899 0.45683,-0.27002 0.0714,0.0274 0.15238,0.12066 0.17985,0.2072 0.0619,0.19516 -0.0789,0.73658 -0.25786,0.99118 -0.12684,0.18045 -0.45343,0.25648 -0.57586,0.13405 z M 94.939387,125.0023 c -0.843729,-0.44363 -1.753309,-1.08702 -1.973064,-1.39564 -0.268404,-0.37694 -0.381232,-0.91166 -0.250096,-1.18526 0.258907,-0.5402 0.808616,-0.5293 1.541849,0.0306 0.380249,0.29034 0.387298,0.29208 0.387298,0.0956 0,-0.6676 0.528822,-1.58558 0.913402,-1.58558 0.266322,0 0.617297,0.33647 0.832045,0.79765 0.152255,0.32698 0.20043,0.57731 0.201059,1.04474 7.71e-4,0.57277 -0.22301,1.82389 -0.417928,2.33657 -0.122338,0.32177 -0.423252,0.28799 -1.234565,-0.1386 z m 16.633383,0.22816 c -0.24514,-0.29538 -0.0318,-2.77586 0.29274,-3.40344 0.20965,-0.40542 0.69675,-0.78042 1.01371,-0.78042 0.43481,0 0.64681,0.28443 0.64681,0.86778 0,0.26173 -0.0392,0.57888 -0.087,0.70479 -0.0479,0.1259 -0.0747,0.24129 -0.0596,0.2564 0.0151,0.0151 0.21274,-0.0283 0.43916,-0.0964 0.68117,-0.205 1.30425,-0.13713 1.50529,0.16395 0.10236,0.15329 0.0731,0.55119 -0.0594,0.80734 -0.19363,0.37444 -0.86314,0.91391 -1.36916,1.10324 -0.42341,0.15842 -1.88044,0.51091 -2.11185,0.51091 -0.0547,0 -0.14953,-0.0604 -0.21076,-0.13414 z"
       id="path3"
       mask="url(#mask4)"
       transform="translate(-3.9393989,-4.0752402)" /></g></svg>
