<svg width="82" height="52" viewBox="0 0 82 52" fill="none" xmlns="http://www.w3.org/2000/svg">
<path d="M16.4996 29.9677C16.0045 29.9677 15.5306 29.8936 15.0777 29.7452C14.6249 29.5903 14.2657 29.3935 14 29.1548L14.4075 28.1774C14.6611 28.3903 14.9751 28.5677 15.3494 28.7097C15.7238 28.8516 16.1072 28.9226 16.4996 28.9226C16.8317 28.9226 17.1004 28.8839 17.3057 28.8065C17.5109 28.729 17.6619 28.6258 17.7585 28.4968C17.8551 28.3613 17.9034 28.2097 17.9034 28.0419C17.9034 27.8355 17.834 27.671 17.6951 27.5484C17.5562 27.4194 17.3751 27.3194 17.1517 27.2484C16.9343 27.171 16.6898 27.1 16.4181 27.0355C16.1525 26.971 15.8838 26.8968 15.6121 26.8129C15.3464 26.7226 15.1019 26.6097 14.8785 26.4742C14.6611 26.3323 14.483 26.1452 14.3442 25.9129C14.2053 25.6806 14.1358 25.3839 14.1358 25.0226C14.1358 24.6548 14.2264 24.3194 14.4075 24.0161C14.5947 23.7065 14.8755 23.4613 15.2498 23.2806C15.6302 23.0935 16.1102 23 16.6898 23C17.0702 23 17.4475 23.0516 17.8219 23.1548C18.1962 23.2581 18.5223 23.4065 18.8 23.6L18.4287 24.5774C18.1449 24.3968 17.8521 24.2645 17.5502 24.1806C17.2483 24.0903 16.9585 24.0452 16.6808 24.0452C16.3547 24.0452 16.0891 24.0871 15.8838 24.171C15.6845 24.2548 15.5366 24.3645 15.44 24.5C15.3494 24.6355 15.3042 24.7903 15.3042 24.9645C15.3042 25.171 15.3706 25.3387 15.5034 25.4677C15.6423 25.5903 15.8204 25.6871 16.0377 25.7581C16.2611 25.829 16.5087 25.9 16.7804 25.971C17.0521 26.0355 17.3208 26.1097 17.5864 26.1935C17.8581 26.2774 18.1026 26.3871 18.32 26.5226C18.5434 26.6581 18.7215 26.8419 18.8543 27.0742C18.9932 27.3065 19.0626 27.6 19.0626 27.9548C19.0626 28.3161 18.9691 28.6516 18.7819 28.9613C18.6008 29.2645 18.32 29.5097 17.9396 29.6968C17.5592 29.8774 17.0792 29.9677 16.4996 29.9677ZM22.9561 29.9677C22.0867 29.9677 21.4045 29.7065 20.9094 29.1839C20.4203 28.6613 20.1758 27.9065 20.1758 26.9194V23.0968H21.3531V26.871C21.3531 27.5677 21.492 28.0742 21.7697 28.3903C22.0535 28.7065 22.452 28.8645 22.9652 28.8645C23.4784 28.8645 23.8739 28.7065 24.1516 28.3903C24.4294 28.0742 24.5682 27.5677 24.5682 26.871V23.0968H25.7275V26.9194C25.7275 27.9065 25.4799 28.6613 24.9848 29.1839C24.4958 29.7065 23.8195 29.9677 22.9561 29.9677ZM27.3763 29.871V23.0968H30.3469C31.1076 23.0968 31.6872 23.2581 32.0857 23.5806C32.4842 23.8968 32.6835 24.3226 32.6835 24.8581C32.6835 25.2194 32.605 25.529 32.448 25.7871C32.291 26.0387 32.0797 26.2355 31.814 26.3774C31.5544 26.5129 31.2706 26.5806 30.9627 26.5806L31.1257 26.2323C31.482 26.2323 31.802 26.3032 32.0857 26.4452C32.3695 26.5806 32.5929 26.7806 32.7559 27.0452C32.925 27.3097 33.0095 27.6387 33.0095 28.0323C33.0095 28.6129 32.8012 29.0645 32.3846 29.3871C31.968 29.7097 31.3491 29.871 30.528 29.871H27.3763ZM28.5537 28.8839H30.4555C30.8963 28.8839 31.2344 28.8065 31.4699 28.6516C31.7054 28.4968 31.8231 28.2484 31.8231 27.9065C31.8231 27.571 31.7054 27.3258 31.4699 27.171C31.2344 27.0097 30.8963 26.929 30.4555 26.929H28.4631V25.9516H30.2201C30.6306 25.9516 30.9446 25.8742 31.162 25.7194C31.3854 25.5645 31.4971 25.3323 31.4971 25.0226C31.4971 24.7065 31.3854 24.471 31.162 24.3161C30.9446 24.1613 30.6306 24.0839 30.2201 24.0839H28.5537V28.8839ZM36.2313 29.9677C35.7362 29.9677 35.2623 29.8936 34.8094 29.7452C34.3566 29.5903 33.9974 29.3935 33.7317 29.1548L34.1392 28.1774C34.3928 28.3903 34.7068 28.5677 35.0811 28.7097C35.4555 28.8516 35.8389 28.9226 36.2313 28.9226C36.5634 28.9226 36.8321 28.8839 37.0374 28.8065C37.2426 28.729 37.3936 28.6258 37.4902 28.4968C37.5868 28.3613 37.6351 28.2097 37.6351 28.0419C37.6351 27.8355 37.5657 27.671 37.4268 27.5484C37.2879 27.4194 37.1068 27.3194 36.8834 27.2484C36.666 27.171 36.4215 27.1 36.1498 27.0355C35.8842 26.971 35.6155 26.8968 35.3438 26.8129C35.0781 26.7226 34.8336 26.6097 34.6102 26.4742C34.3928 26.3323 34.2147 26.1452 34.0758 25.9129C33.937 25.6806 33.8675 25.3839 33.8675 25.0226C33.8675 24.6548 33.9581 24.3194 34.1392 24.0161C34.3264 23.7065 34.6072 23.4613 34.9815 23.2806C35.3619 23.0935 35.8419 23 36.4215 23C36.8019 23 37.1792 23.0516 37.5536 23.1548C37.9279 23.2581 38.254 23.4065 38.5317 23.6L38.1604 24.5774C37.8766 24.3968 37.5838 24.2645 37.2819 24.1806C36.98 24.0903 36.6902 24.0452 36.4125 24.0452C36.0864 24.0452 35.8208 24.0871 35.6155 24.171C35.4162 24.2548 35.2683 24.3645 35.1717 24.5C35.0811 24.6355 35.0358 24.7903 35.0358 24.9645C35.0358 25.171 35.1023 25.3387 35.2351 25.4677C35.374 25.5903 35.5521 25.6871 35.7694 25.7581C35.9928 25.829 36.2404 25.9 36.5121 25.971C36.7838 26.0355 37.0525 26.1097 37.3181 26.1935C37.5898 26.2774 37.8343 26.3871 38.0517 26.5226C38.2751 26.6581 38.4532 26.8419 38.586 27.0742C38.7249 27.3065 38.7943 27.6 38.7943 27.9548C38.7943 28.3161 38.7008 28.6516 38.5136 28.9613C38.3325 29.2645 38.0517 29.5097 37.6713 29.6968C37.2909 29.8774 36.8109 29.9677 36.2313 29.9677ZM42.8961 29.9677C42.4131 29.9677 41.9633 29.8839 41.5467 29.7161C41.1361 29.5419 40.7769 29.3 40.469 28.9903C40.1671 28.6742 39.9316 28.3032 39.7626 27.8774C39.5935 27.4516 39.509 26.9871 39.509 26.4839C39.509 25.9806 39.5935 25.5161 39.7626 25.0903C39.9316 24.6645 40.1701 24.2968 40.478 23.9871C40.786 23.671 41.1452 23.429 41.5558 23.2613C41.9663 23.0871 42.4161 23 42.9052 23C43.4245 23 43.8984 23.0968 44.3271 23.2903C44.7558 23.4774 45.118 23.7581 45.4139 24.1323L44.6531 24.8968C44.4237 24.6323 44.1671 24.4355 43.8833 24.3065C43.5995 24.171 43.2916 24.1032 42.9595 24.1032C42.6275 24.1032 42.3226 24.1613 42.0448 24.2774C41.7731 24.3935 41.5346 24.5581 41.3294 24.771C41.1301 24.9839 40.9731 25.2355 40.8584 25.5258C40.7497 25.8161 40.6954 26.1355 40.6954 26.4839C40.6954 26.8323 40.7497 27.1516 40.8584 27.4419C40.9731 27.7323 41.1301 27.9839 41.3294 28.1968C41.5346 28.4097 41.7731 28.5742 42.0448 28.6903C42.3226 28.8065 42.6275 28.8645 42.9595 28.8645C43.2916 28.8645 43.5995 28.8 43.8833 28.671C44.1671 28.5355 44.4237 28.3323 44.6531 28.0613L45.4139 28.8355C45.118 29.2032 44.7558 29.4839 44.3271 29.6774C43.8984 29.871 43.4214 29.9677 42.8961 29.9677ZM46.542 29.871V23.0968H49.1503C49.7118 23.0968 50.1918 23.1935 50.5903 23.3871C50.9949 23.5806 51.3058 23.8581 51.5232 24.2194C51.7405 24.5806 51.8492 25.0097 51.8492 25.5065C51.8492 26.0032 51.7405 26.4323 51.5232 26.7935C51.3058 27.1484 50.9949 27.4226 50.5903 27.6161C50.1918 27.8032 49.7118 27.8968 49.1503 27.8968H47.1941L47.7194 27.3258V29.871H46.542ZM50.69 29.871L49.0869 27.4129H50.3458L51.9579 29.871H50.69ZM47.7194 27.4613L47.1941 26.8613H49.096C49.6152 26.8613 50.0047 26.7419 50.2643 26.5032C50.53 26.2645 50.6628 25.9323 50.6628 25.5065C50.6628 25.0742 50.53 24.7419 50.2643 24.5097C50.0047 24.2774 49.6152 24.1613 49.096 24.1613H47.1941L47.7194 23.5419V27.4613ZM53.1664 29.871V23.0968H54.3438V29.871H53.1664ZM56.0585 29.871V23.0968H59.0291C59.7898 23.0968 60.3694 23.2581 60.7679 23.5806C61.1664 23.8968 61.3657 24.3226 61.3657 24.8581C61.3657 25.2194 61.2872 25.529 61.1302 25.7871C60.9732 26.0387 60.7619 26.2355 60.4962 26.3774C60.2366 26.5129 59.9528 26.5806 59.6449 26.5806L59.8079 26.2323C60.1642 26.2323 60.4841 26.3032 60.7679 26.4452C61.0517 26.5806 61.2751 26.7806 61.4381 27.0452C61.6072 27.3097 61.6917 27.6387 61.6917 28.0323C61.6917 28.6129 61.4834 29.0645 61.0668 29.3871C60.6502 29.7097 60.0313 29.871 59.2102 29.871H56.0585ZM57.2358 28.8839H59.1377C59.5785 28.8839 59.9166 28.8065 60.1521 28.6516C60.3875 28.4968 60.5053 28.2484 60.5053 27.9065C60.5053 27.571 60.3875 27.3258 60.1521 27.171C59.9166 27.0097 59.5785 26.929 59.1377 26.929H57.1453V25.9516H58.9023C59.3128 25.9516 59.6268 25.8742 59.8441 25.7194C60.0675 25.5645 60.1792 25.3323 60.1792 25.0226C60.1792 24.7065 60.0675 24.471 59.8441 24.3161C59.6268 24.1613 59.3128 24.0839 58.9023 24.0839H57.2358V28.8839ZM64.035 25.9129H67.1867V26.9484H64.035V25.9129ZM64.1256 28.8161H67.7029V29.871H62.9482V23.0968H67.5762V24.1516H64.1256V28.8161Z" fill="#735473"/>
<path d="M41 0.5C42.9833 0.500001 44.9453 0.77686 46.7432 1.31348C48.3372 1.78888 49.7915 2.56963 51.748 3.61328L52.0566 3.77441L52.0635 3.77734L52.0703 3.78125C53.6905 4.69407 55.7868 5.24265 58.0078 5.31543H58.0156L58.4141 5.33496L60.2207 5.42871C61.9144 5.52563 63.2901 5.64555 64.5332 5.91895H64.5342C66.4082 6.33339 68.1225 7.00717 69.5479 7.89844C70.9722 8.78912 72.0843 9.88287 72.7793 11.1123L72.8916 11.3213C73.2838 12.0966 73.4659 12.9502 73.6104 13.9365L73.7607 15.0684L73.7617 15.0693L73.793 15.3184L73.7939 15.3281L73.7949 15.3389C73.8924 16.5001 74.5908 17.6623 75.873 18.6318L76.1377 18.8232L76.1445 18.8281L76.1523 18.834L76.4053 19.0234C78.0633 20.2376 79.3366 21.1644 80.1279 22.1953L80.1289 22.1963C81.0211 23.364 81.5 24.6645 81.5 26C81.5 27.3355 81.0211 28.636 80.1289 29.8037C79.341 30.8356 78.0624 31.7631 76.4053 32.9766L76.1523 33.166L76.1484 33.1689C74.6 34.3061 73.9657 35.3185 73.792 36.6807L73.793 36.6816L73.7617 36.9307L73.7607 36.9316C73.5576 38.5174 73.4075 39.7796 72.7842 40.8867L72.7832 40.8877C72.0872 42.117 70.974 43.2103 69.5488 44.1006C68.3012 44.88 66.8327 45.4929 65.2295 45.9111L64.5342 46.0781C63.2907 46.3535 61.9146 46.4742 60.2207 46.5713L58.4141 46.665L58.0156 46.6846C55.5771 46.8059 53.8596 47.2632 52.0605 48.2236L52.0566 48.2256L51.751 48.3838L51.752 48.3848C50.0375 49.2993 48.7095 50.0097 47.3359 50.4932L46.7432 50.6865C44.9453 51.2231 42.9833 51.5 41 51.5C39.0167 51.5 37.0547 51.2231 35.2568 50.6865C33.662 50.2109 32.207 49.4292 30.2451 48.3848V48.3857L29.9414 48.2246H29.9395C28.2166 47.3083 26.5929 46.8612 24.4248 46.7109L23.9844 46.6846L23.5859 46.665C21.0177 46.5365 19.1243 46.4456 17.4668 46.0811H17.4658C15.5918 45.6666 13.8775 44.9928 12.4521 44.1016C11.1166 43.2664 10.0556 42.2528 9.35547 41.1162L9.2207 40.8877C8.59277 39.78 8.44237 38.5173 8.23926 36.9316L8.23828 36.9307L8.20703 36.6816C8.02986 35.2919 7.37549 34.2833 5.85254 33.1689L5.84766 33.166L5.59473 32.9766L4.4248 32.1133C3.33022 31.2921 2.46554 30.5778 1.87207 29.8047L1.87109 29.8037C0.978857 28.636 0.500001 27.3355 0.5 26C0.5 24.6645 0.978856 23.364 1.87109 22.1963L2.02441 22.0039C2.81995 21.0475 4.04068 20.1611 5.59375 19.0215L5.85059 18.832L5.85645 18.8271L5.8623 18.8232C7.31302 17.8174 8.10111 16.5776 8.20508 15.3389L8.20605 15.3281L8.20703 15.3184L8.23828 15.0693L8.23926 15.0684C8.44239 13.4826 8.59246 12.2204 9.21582 11.1133L9.2168 11.1123C9.91278 9.88299 11.026 8.78972 12.4512 7.89941C13.8771 7.00865 15.5916 6.33574 17.4658 5.92188L18.0996 5.7959C19.6079 5.53075 21.3388 5.4474 23.5859 5.33496L23.9844 5.31543H23.9922C26.2132 5.24265 28.3095 4.69407 29.9297 3.78125L29.9365 3.77734L29.9434 3.77441L30.252 3.61328C32.2093 2.56922 33.6634 1.79122 35.2568 1.31348C37.0547 0.776859 39.0167 0.5 41 0.5Z" stroke="white"/>
</svg>
