<svg width="88" height="58" viewBox="0 0 88 58" fill="none" xmlns="http://www.w3.org/2000/svg">
<g filter="url(#filter0_d_3_220)">
<path d="M49.6 0.792821C47.8512 0.270885 45.9379 0 44 0C42.0621 0 40.1487 0.270885 38.4 0.792821C36.8625 1.25379 35.4537 2.00501 33.483 3.05622L33.1747 3.2172C31.4732 4.17577 29.2964 4.73979 27.0089 4.81475L26.6108 4.83426C24.0274 4.96353 22.1816 5.05377 20.5738 5.40987C18.7465 5.81335 17.0867 6.46716 15.716 7.32343C14.3453 8.17971 13.2984 9.21675 12.6519 10.3586C12.086 11.3635 11.9416 12.5171 11.7348 14.1318L11.7036 14.3805C11.5837 15.8103 10.6812 17.1708 9.14751 18.2342L8.88996 18.4244C7.20801 19.6586 6.00217 20.539 5.26851 21.5C4.43342 22.593 4 23.7888 4 25C4 26.2112 4.43342 27.407 5.26851 28.5C6.00607 29.4609 7.20801 30.3414 8.88996 31.5731L9.14751 31.7658C10.7475 32.9365 11.5046 34.056 11.7036 35.6194L11.7348 35.8682C11.9416 37.4828 12.086 38.6365 12.6558 39.6414C13.3014 40.7834 14.3475 41.8208 15.7175 42.6775C17.0875 43.5342 18.7468 44.1885 20.5738 44.5926C22.1816 44.9462 24.0274 45.0365 26.6108 45.1657L27.0089 45.1852C29.4635 45.3072 31.2625 45.7657 33.1747 46.7828L33.4791 46.9438C35.4537 47.995 36.8625 48.7486 38.4 49.2072C40.1487 49.7291 42.0621 50 44 50C45.9379 50 47.8512 49.7291 49.6 49.2072C51.1375 48.7462 52.5463 47.995 54.517 46.9438L54.8253 46.7828C56.6985 45.7828 58.4897 45.3096 60.9911 45.1852L61.3892 45.1657C63.9726 45.0365 65.8184 44.9462 67.4262 44.5901C69.2535 44.1866 70.9133 43.5328 72.284 42.6766C73.6547 41.8203 74.7016 40.7832 75.3481 39.6414C75.914 38.6365 76.0583 37.4828 76.2652 35.8682L76.2964 35.6194C76.4915 34.0853 77.2252 32.9609 78.8525 31.7658L79.11 31.5731C80.792 30.3414 81.9978 29.4609 82.7315 28.5C83.5666 27.407 84 26.2112 84 25C84 23.7888 83.5666 22.593 82.7315 21.5C81.9939 20.539 80.792 19.6586 79.11 18.4269L78.8525 18.2342C77.3188 17.1708 76.4163 15.8103 76.2964 14.3805L76.2652 14.1318C76.0583 12.5171 75.914 11.3635 75.3442 10.3586C74.6986 9.21655 73.6525 8.17918 72.2825 7.32249C70.9125 6.4658 69.2532 5.81147 67.4262 5.40743C65.8184 5.05377 63.9726 4.96353 61.3892 4.83426L60.9911 4.81475C58.7036 4.73979 56.5267 4.17577 54.8253 3.2172L54.517 3.05622C52.5463 2.00501 51.1375 1.25135 49.6 0.792821Z" fill="white"/>
</g>
<g clip-path="url(#clip0_3_220)">
<mask id="mask0_3_220" style="mask-type:alpha" maskUnits="userSpaceOnUse" x="6" y="0" width="76" height="50">
<path d="M49.2829 1.5737C47.6332 1.0686 45.8282 0.80645 44 0.80645C42.1717 0.80645 40.3667 1.0686 38.717 1.5737C37.2665 2.0198 35.9374 2.74678 34.0782 3.76409L33.7874 3.91987C32.1823 4.84752 30.1287 5.39334 27.9706 5.46589L27.5951 5.48476C25.1579 5.60986 23.4166 5.6972 21.8998 6.04181C20.1759 6.43227 18.6101 7.065 17.317 7.89364C16.0238 8.7223 15.0361 9.72589 14.4263 10.8309C13.8924 11.8034 13.7562 12.9198 13.5611 14.4823L13.5317 14.7231C13.4185 16.1067 12.5672 17.4233 11.1203 18.4524L10.8773 18.6365C9.29056 19.8309 8.15297 20.683 7.46084 21.6129C6.67301 22.6706 6.26413 23.8279 6.26413 25C6.26413 26.1721 6.67301 27.3294 7.46084 28.3871C8.15665 29.317 9.29056 30.1691 10.8773 31.3611L11.1203 31.5476C12.6297 32.6805 13.3439 33.7639 13.5317 35.2769L13.5611 35.5177C13.7562 37.0802 13.8924 38.1966 14.4299 39.1691C15.039 40.2743 16.0259 41.2782 17.3184 42.1073C18.6108 42.9363 20.1762 43.5695 21.8998 43.9606C23.4166 44.3028 25.1579 44.3902 27.5951 44.5152L27.9706 44.5341C30.2863 44.6521 31.9834 45.0959 33.7874 46.0802L34.0745 46.2359C35.9374 47.2532 37.2665 47.9826 38.717 48.4263C40.3667 48.9314 42.1717 49.1936 44 49.1936C45.8282 49.1936 47.6332 48.9314 49.2829 48.4263C50.7335 47.9802 52.0625 47.2532 53.9217 46.2359L54.2125 46.0802C55.9797 45.1124 57.6695 44.6545 60.0293 44.5341L60.4048 44.5152C62.842 44.3902 64.5834 44.3028 66.1002 43.9582C67.824 43.5677 69.3899 42.935 70.683 42.1064C71.9761 41.2777 72.9638 40.2741 73.5736 39.1691C74.1075 38.1966 74.2437 37.0802 74.4388 35.5177L74.4683 35.2769C74.6524 33.7923 75.3445 32.7041 76.8797 31.5476L77.1226 31.3611C78.7094 30.1691 79.847 29.317 80.5391 28.3871C81.3269 27.3294 81.7358 26.1721 81.7358 25C81.7358 23.8279 81.3269 22.6706 80.5391 21.6129C79.8433 20.683 78.7094 19.8309 77.1226 18.6389L76.8797 18.4524C75.4327 17.4233 74.5814 16.1067 74.4683 14.7231L74.4388 14.4823C74.2437 12.9198 74.1074 11.8034 73.57 10.8309C72.961 9.72572 71.9741 8.72179 70.6816 7.89273C69.3891 7.06368 67.8237 6.43046 66.1002 6.03944C64.5834 5.6972 62.842 5.60986 60.4048 5.48476L60.0293 5.46589C57.8713 5.39334 55.8176 4.84752 54.2125 3.91987L53.9217 3.76409C52.0625 2.74678 50.7335 2.01744 49.2829 1.5737Z" fill="#FFC9FF"/>
</mask>
<g mask="url(#mask0_3_220)">
<path d="M14.6484 49.4656H11.4236V-19.5287H14.6484V49.4656Z" fill="white"/>
<path d="M17.7907 51.2524H14.566V-17.7419H17.7907V51.2524Z" fill="#FFC9FF"/>
<path d="M24.5831 51.2524H21.3585V-17.7419H24.5831V51.2524Z" fill="#FFC9FF"/>
<path d="M30.6209 51.2524H27.3962V-17.7419H30.6209V51.2524Z" fill="#FFC9FF"/>
<path d="M37.4133 52.8653H34.1887V-16.129H37.4133V52.8653Z" fill="#FFC9FF"/>
<path d="M43.4511 52.8653H40.2264V-16.129H43.4511V52.8653Z" fill="#FFC9FF"/>
<path d="M50.2435 52.8653H47.0188V-16.129H50.2435V52.8653Z" fill="#FFC9FF"/>
<path d="M57.036 51.2524H53.8113V-17.7419H57.036V51.2524Z" fill="#FFC9FF"/>
<path d="M63.0737 51.2524H59.849V-17.7419H63.0737V51.2524Z" fill="#FFC9FF"/>
<path d="M69.8662 51.2524H66.6415V-17.7419H69.8662V51.2524Z" fill="#FFC9FF"/>
<path d="M75.9039 51.2524H72.6792V-17.7419H75.9039V51.2524Z" fill="#FFC9FF"/>
<path d="M81.9419 51.2524H78.7169V-17.7419H81.9419V51.2524Z" fill="#FFC9FF"/>
<path d="M10.9983 48.8331H7.77356V-20.1613H10.9983V48.8331Z" fill="#FFC9FF"/>
<path d="M8.19894 49.4656H4.97424V-19.5287H8.19894V49.4656Z" fill="white"/>
<path d="M21.0977 49.4656H17.873V-19.5287H21.0977V49.4656Z" fill="white"/>
<path d="M27.5471 49.4656H24.3224V-19.5287H27.5471V49.4656Z" fill="white"/>
<path d="M33.9965 54.5494H30.7718V-14.4449H33.9965V54.5494Z" fill="white"/>
<path d="M40.4459 54.5494H37.2212V-14.4449H40.4459V54.5494Z" fill="white"/>
<path d="M46.8952 54.5494H43.6705V-14.4449H46.8952V54.5494Z" fill="white"/>
<path d="M53.3446 54.5494H50.12V-14.4449H53.3446V54.5494Z" fill="white"/>
<path d="M59.794 54.5494H56.5693V-14.4449H59.794V54.5494Z" fill="white"/>
<path d="M66.2434 54.5494H63.0187V-14.4449H66.2434V54.5494Z" fill="white"/>
<path d="M72.6928 54.5494H69.4681V-14.4449H72.6928V54.5494Z" fill="white"/>
<path d="M79.1422 54.5494H75.9175V-14.4449H79.1422V54.5494Z" fill="white"/>
<path d="M19.6468 28.3226C19.1517 28.3226 18.6777 28.2484 18.2249 28.1C17.7721 27.9452 17.4128 27.7484 17.1472 27.5097L17.5547 26.5323C17.8083 26.7452 18.1223 26.9226 18.4966 27.0645C18.8709 27.2065 19.2543 27.2774 19.6468 27.2774C19.9789 27.2774 20.2475 27.2387 20.4528 27.1613C20.6581 27.0839 20.809 26.9806 20.9056 26.8516C21.0022 26.7161 21.0506 26.5645 21.0506 26.3968C21.0506 26.1903 20.9811 26.0258 20.8422 25.9032C20.7034 25.7742 20.5223 25.6742 20.2989 25.6032C20.0815 25.5258 19.837 25.4548 19.5653 25.3903C19.2996 25.3258 19.0309 25.2516 18.7592 25.1677C18.4936 25.0774 18.249 24.9645 18.0256 24.829C17.8083 24.6871 17.6302 24.5 17.4913 24.2677C17.3524 24.0355 17.283 23.7387 17.283 23.3774C17.283 23.0097 17.3736 22.6742 17.5547 22.371C17.7419 22.0613 18.0226 21.8161 18.397 21.6355C18.7773 21.4484 19.2573 21.3548 19.837 21.3548C20.2173 21.3548 20.5947 21.4064 20.969 21.5097C21.3434 21.6129 21.6694 21.7613 21.9472 21.9548L21.5758 22.9323C21.2921 22.7516 20.9992 22.6194 20.6973 22.5355C20.3955 22.4452 20.1056 22.4 19.8279 22.4C19.5019 22.4 19.2362 22.4419 19.0309 22.5258C18.8317 22.6097 18.6838 22.7194 18.5872 22.8548C18.4966 22.9903 18.4513 23.1452 18.4513 23.3194C18.4513 23.5258 18.5177 23.6935 18.6506 23.8226C18.7894 23.9452 18.9675 24.0419 19.1849 24.1129C19.4083 24.1839 19.6558 24.2548 19.9275 24.3258C20.1992 24.3903 20.4679 24.4645 20.7336 24.5484C21.0053 24.6323 21.2498 24.7419 21.4672 24.8774C21.6906 25.0129 21.8687 25.1968 22.0015 25.429C22.1404 25.6613 22.2098 25.9548 22.2098 26.3097C22.2098 26.671 22.1162 27.0065 21.929 27.3161C21.7479 27.6194 21.4672 27.8645 21.0868 28.0516C20.7064 28.2323 20.2264 28.3226 19.6468 28.3226ZM26.1033 28.3226C25.2339 28.3226 24.5516 28.0613 24.0565 27.5387C23.5675 27.0161 23.3229 26.2613 23.3229 25.2742V21.4516H24.5003V25.2258C24.5003 25.9226 24.6392 26.429 24.9169 26.7452C25.2007 27.0613 25.5992 27.2194 26.1124 27.2194C26.6256 27.2194 27.021 27.0613 27.2988 26.7452C27.5765 26.429 27.7154 25.9226 27.7154 25.2258V21.4516H28.8746V25.2742C28.8746 26.2613 28.6271 27.0161 28.132 27.5387C27.6429 28.0613 26.9667 28.3226 26.1033 28.3226ZM30.5235 28.2258V21.4516H33.494C34.2548 21.4516 34.8344 21.6129 35.2329 21.9355C35.6314 22.2516 35.8306 22.6774 35.8306 23.2129C35.8306 23.5742 35.7521 23.8839 35.5952 24.1419C35.4382 24.3935 35.2269 24.5903 34.9612 24.7323C34.7016 24.8677 34.4178 24.9355 34.1099 24.9355L34.2729 24.5871C34.6291 24.5871 34.9491 24.6581 35.2329 24.8C35.5167 24.9355 35.7401 25.1355 35.9031 25.4C36.0721 25.6645 36.1567 25.9935 36.1567 26.3871C36.1567 26.9677 35.9484 27.4194 35.5318 27.7419C35.1152 28.0645 34.4963 28.2258 33.6752 28.2258H30.5235ZM31.7008 27.2387H33.6027C34.0435 27.2387 34.3816 27.1613 34.617 27.0064C34.8525 26.8516 34.9702 26.6032 34.9702 26.2613C34.9702 25.9258 34.8525 25.6806 34.617 25.5258C34.3816 25.3645 34.0435 25.2839 33.6027 25.2839H31.6102V24.3064H33.3672C33.7778 24.3064 34.0918 24.229 34.3091 24.0742C34.5325 23.9194 34.6442 23.6871 34.6442 23.3774C34.6442 23.0613 34.5325 22.8258 34.3091 22.671C34.0918 22.5161 33.7778 22.4387 33.3672 22.4387H31.7008V27.2387ZM39.3785 28.3226C38.8834 28.3226 38.4094 28.2484 37.9566 28.1C37.5038 27.9452 37.1445 27.7484 36.8789 27.5097L37.2864 26.5323C37.54 26.7452 37.8539 26.9226 38.2283 27.0645C38.6026 27.2065 38.986 27.2774 39.3785 27.2774C39.7105 27.2774 39.9792 27.2387 40.1845 27.1613C40.3898 27.0839 40.5407 26.9806 40.6373 26.8516C40.7339 26.7161 40.7822 26.5645 40.7822 26.3968C40.7822 26.1903 40.7128 26.0258 40.5739 25.9032C40.4351 25.7742 40.2539 25.6742 40.0306 25.6032C39.8132 25.5258 39.5687 25.4548 39.297 25.3903C39.0313 25.3258 38.7626 25.2516 38.4909 25.1677C38.2253 25.0774 37.9807 24.9645 37.7573 24.829C37.54 24.6871 37.3619 24.5 37.223 24.2677C37.0841 24.0355 37.0147 23.7387 37.0147 23.3774C37.0147 23.0097 37.1053 22.6742 37.2864 22.371C37.4736 22.0613 37.7543 21.8161 38.1287 21.6355C38.509 21.4484 38.989 21.3548 39.5687 21.3548C39.949 21.3548 40.3264 21.4064 40.7007 21.5097C41.0751 21.6129 41.4011 21.7613 41.6789 21.9548L41.3075 22.9323C41.0238 22.7516 40.7309 22.6194 40.429 22.5355C40.1272 22.4452 39.8373 22.4 39.5596 22.4C39.2336 22.4 38.9679 22.4419 38.7626 22.5258C38.5634 22.6097 38.4155 22.7194 38.3189 22.8548C38.2283 22.9903 38.183 23.1452 38.183 23.3194C38.183 23.5258 38.2494 23.6935 38.3822 23.8226C38.5211 23.9452 38.6992 24.0419 38.9166 24.1129C39.14 24.1839 39.3875 24.2548 39.6592 24.3258C39.9309 24.3903 40.1996 24.4645 40.4653 24.5484C40.737 24.6323 40.9815 24.7419 41.1989 24.8774C41.4222 25.0129 41.6004 25.1968 41.7332 25.429C41.8721 25.6613 41.9415 25.9548 41.9415 26.3097C41.9415 26.671 41.8479 27.0065 41.6607 27.3161C41.4796 27.6194 41.1989 27.8645 40.8185 28.0516C40.4381 28.2323 39.9581 28.3226 39.3785 28.3226ZM46.0433 28.3226C45.5603 28.3226 45.1105 28.2387 44.6939 28.071C44.2833 27.8968 43.9241 27.6548 43.6161 27.3452C43.3143 27.029 43.0788 26.6581 42.9097 26.2323C42.7407 25.8064 42.6561 25.3419 42.6561 24.8387C42.6561 24.3355 42.7407 23.871 42.9097 23.4452C43.0788 23.0194 43.3173 22.6516 43.6252 22.3419C43.9331 22.0258 44.2924 21.7839 44.7029 21.6161C45.1135 21.4419 45.5633 21.3548 46.0524 21.3548C46.5716 21.3548 47.0456 21.4516 47.4743 21.6452C47.9029 21.8323 48.2652 22.1129 48.561 22.4871L47.8003 23.2516C47.5709 22.9871 47.3142 22.7903 47.0305 22.6613C46.7467 22.5258 46.4388 22.4581 46.1067 22.4581C45.7746 22.4581 45.4697 22.5161 45.192 22.6323C44.9203 22.7484 44.6818 22.9129 44.4765 23.1258C44.2773 23.3387 44.1203 23.5903 44.0056 23.8806C43.8969 24.171 43.8425 24.4903 43.8425 24.8387C43.8425 25.1871 43.8969 25.5064 44.0056 25.7968C44.1203 26.0871 44.2773 26.3387 44.4765 26.5516C44.6818 26.7645 44.9203 26.929 45.192 27.0452C45.4697 27.1613 45.7746 27.2194 46.1067 27.2194C46.4388 27.2194 46.7467 27.1548 47.0305 27.0258C47.3142 26.8903 47.5709 26.6871 47.8003 26.4161L48.561 27.1903C48.2652 27.5581 47.9029 27.8387 47.4743 28.0323C47.0456 28.2258 46.5686 28.3226 46.0433 28.3226ZM49.6892 28.2258V21.4516H52.2975C52.859 21.4516 53.339 21.5484 53.7375 21.7419C54.142 21.9355 54.453 22.2129 54.6703 22.5742C54.8877 22.9355 54.9964 23.3645 54.9964 23.8613C54.9964 24.3581 54.8877 24.7871 54.6703 25.1484C54.453 25.5032 54.142 25.7774 53.7375 25.971C53.339 26.1581 52.859 26.2516 52.2975 26.2516H50.3413L50.8665 25.6806V28.2258H49.6892ZM53.8371 28.2258L52.2341 25.7677H53.493L55.105 28.2258H53.8371ZM50.8665 25.8161L50.3413 25.2161H52.2432C52.7624 25.2161 53.1518 25.0968 53.4115 24.8581C53.6771 24.6194 53.8099 24.2871 53.8099 23.8613C53.8099 23.429 53.6771 23.0968 53.4115 22.8645C53.1518 22.6323 52.7624 22.5161 52.2432 22.5161H50.3413L50.8665 21.8968V25.8161ZM56.3136 28.2258V21.4516H57.4909V28.2258H56.3136ZM59.2056 28.2258V21.4516H62.1762C62.937 21.4516 63.5166 21.6129 63.9151 21.9355C64.3136 22.2516 64.5128 22.6774 64.5128 23.2129C64.5128 23.5742 64.4343 23.8839 64.2773 24.1419C64.1204 24.3935 63.909 24.5903 63.6434 24.7323C63.3838 24.8677 63.1 24.9355 62.7921 24.9355L62.9551 24.5871C63.3113 24.5871 63.6313 24.6581 63.9151 24.8C64.1988 24.9355 64.4222 25.1355 64.5853 25.4C64.7543 25.6645 64.8389 25.9935 64.8389 26.3871C64.8389 26.9677 64.6306 27.4194 64.2139 27.7419C63.7973 28.0645 63.1785 28.2258 62.3573 28.2258H59.2056ZM60.383 27.2387H62.2849C62.7256 27.2387 63.0638 27.1613 63.2992 27.0064C63.5347 26.8516 63.6524 26.6032 63.6524 26.2613C63.6524 25.9258 63.5347 25.6806 63.2992 25.5258C63.0638 25.3645 62.7256 25.2839 62.2849 25.2839H60.2924V24.3064H62.0494C62.46 24.3064 62.7739 24.229 62.9913 24.0742C63.2147 23.9194 63.3264 23.6871 63.3264 23.3774C63.3264 23.0613 63.2147 22.8258 62.9913 22.671C62.7739 22.5161 62.46 22.4387 62.0494 22.4387H60.383V27.2387ZM67.1822 24.2677H70.3339V25.3032H67.1822V24.2677ZM67.2727 27.171H70.8501V28.2258H66.0954V21.4516H70.7233V22.5064H67.2727V27.171Z" fill="#735473"/>
</g>
</g>
<defs>
<filter id="filter0_d_3_220" x="0" y="0" width="88" height="58" filterUnits="userSpaceOnUse" color-interpolation-filters="sRGB">
<feFlood flood-opacity="0" result="BackgroundImageFix"/>
<feColorMatrix in="SourceAlpha" type="matrix" values="0 0 0 0 0 0 0 0 0 0 0 0 0 0 0 0 0 0 127 0" result="hardAlpha"/>
<feOffset dy="4"/>
<feGaussianBlur stdDeviation="2"/>
<feComposite in2="hardAlpha" operator="out"/>
<feColorMatrix type="matrix" values="0 0 0 0 0 0 0 0 0 0 0 0 0 0 0 0 0 0 0.25 0"/>
<feBlend mode="normal" in2="BackgroundImageFix" result="effect1_dropShadow_3_220"/>
<feBlend mode="normal" in="SourceGraphic" in2="effect1_dropShadow_3_220" result="shape"/>
</filter>
<clipPath id="clip0_3_220">
<rect width="75.4717" height="48.3871" fill="white" transform="translate(6.26413 0.80645)"/>
</clipPath>
</defs>
</svg>
